<svg width="100" height="100" viewBox="0 0 100 100" fill="none" xmlns="http://www.w3.org/2000/svg">
<path d="M29.8864 47.6474V47.6742C31.173 47.6742 32.5668 48.0494 34.0678 48.7731C34.4967 49.0144 34.9523 49.3092 35.4616 49.6577C36.3461 50.4082 36.9894 51.0515 37.3647 51.6143C37.9276 52.3917 38.3296 53.0886 38.5441 53.7051C39.0533 54.9112 39.2946 56.0638 39.2946 57.1628V72.1998L0 72.1998L6.33856e-07 57.6989C7.80311e-07 54.3484 1.3402 51.6143 4.02059 49.5504C4.63708 49.0948 5.19997 48.7731 5.65563 48.5587C7.02263 47.969 8.28242 47.6742 9.43499 47.6742V47.6474C8.55046 47.6474 7.4515 47.4329 6.19171 46.9773C3.64534 45.9051 1.82267 44.1092 0.723708 41.5628C0.241237 40.3835 1.44932e-06 39.0433 1.51376e-06 37.569L1.93086e-06 28.0268L0.0268059 28L39.2946 28V38.1587C39.2946 39.4989 38.9193 40.9195 38.1688 42.4474C37.8472 43.0639 37.4183 43.6804 36.8822 44.2969C36.1049 45.101 35.6492 45.5298 35.4884 45.5834C35.0328 45.9587 34.4431 46.334 33.7462 46.6824C32.9688 47.0845 32.0039 47.3793 30.8513 47.5669L29.8864 47.6474Z" fill="#FFE500"/>
<path d="M50.1074 47.6477V47.6745C48.8208 47.6745 47.427 48.0498 45.926 48.7735C45.4971 49.0147 45.0415 49.3096 44.5322 49.658C43.6477 50.4085 43.0044 51.0518 42.6291 51.6147C42.0662 52.392 41.6642 53.0889 41.4497 53.7054C40.9405 54.9116 40.6992 56.0642 40.6992 57.1631L40.6992 72.2002L79.9938 72.2002V57.6992C79.9938 54.3487 78.6536 51.6147 75.9732 49.5508C75.3567 49.0951 74.7938 48.7735 74.3382 48.559C72.9712 47.9694 71.7114 47.6745 70.5588 47.6745V47.6477C71.4433 47.6477 72.5423 47.4333 73.8021 46.9776C76.3485 45.9054 78.1711 44.1096 79.2701 41.5632C79.7526 40.3838 79.9938 39.0436 79.9938 37.5694V28.0272L79.967 28.0004L40.6992 28.0004L40.6992 38.1591C40.6992 39.4993 41.0745 40.9199 41.825 42.4477C42.1466 43.0642 42.5755 43.6807 43.1116 44.2972C43.8889 45.1013 44.3446 45.5302 44.5054 45.5838C44.961 45.9591 45.5507 46.3343 46.2476 46.6828C47.0249 47.0848 47.9899 47.3797 49.1425 47.5673L50.1074 47.6477Z" fill="#FFE500"/>
<path d="M81.583 72.1697L81.6103 72.1998H99.9995V28L81.583 28L81.583 38.1587C81.583 39.4989 81.9583 40.9195 82.7088 42.4474C83.0304 43.0639 83.4593 43.6804 83.9954 44.2968C84.7727 45.101 85.2283 45.5298 85.3892 45.5834C85.8448 45.9587 86.4345 46.334 87.1314 46.6824C87.9087 47.0845 88.8737 47.3793 90.0263 47.5669L90.9912 47.6474V47.6742C89.7046 47.6742 88.3108 48.0494 86.8098 48.7731C86.3809 49.0144 85.9252 49.3092 85.416 49.6577C84.5314 50.4082 83.8881 51.0515 83.5129 51.6144C82.95 52.3917 82.548 53.0886 82.3335 53.7051C81.8242 54.9112 81.583 56.0638 81.583 57.1628V72.1697Z" fill="#FFE500"/>
</svg>
