<svg width="286" height="286" viewBox="0 0 286 286" fill="none" xmlns="http://www.w3.org/2000/svg">
<rect width="286" height="286" rx="50" fill="#086AC5"/>
<path d="M74.6 96.2C86.6 96.2 96.2 86.45 96.2 74.6C96.2 62.75 86.45 53 74.6 53C62.75 53 53 62.75 53 74.6C53 86.45 62.75 96.2 74.6 96.2ZM116.75 112.55L116.75 232.85H153.95V173.45C153.95 157.7 156.95 142.55 176.3 142.55C195.65 142.55 195.65 160.55 195.65 174.35L195.65 232.85L233 232.85L233 166.85C233 134.45 226.1 109.55 188.3 109.55C170.15 109.55 158 119.45 153.05 128.9H152.6V112.4H116.9L116.75 112.55ZM56 112.55H93.35L93.35 232.85H56L56 112.55Z" fill="#069FFF"/>
</svg>
