<svg width="160" height="48" viewBox="0 0 160 48" fill="none" xmlns="http://www.w3.org/2000/svg">
<g clip-path="url(#clip0_107_775)">
<rect width="158.977" height="47.8125" transform="translate(0.5 0.09375)" fill="#F3F3F3"/>
<path d="M100.36 46.0758C97.3615 39.2193 100.489 31.2306 107.346 28.2326C114.202 25.2346 122.191 28.3624 125.189 35.2189C128.187 42.0754 125.059 50.0641 118.203 53.0621C111.346 56.0601 103.358 52.9323 100.36 46.0758Z" fill="#2B2B2B"/>
<path fill-rule="evenodd" clip-rule="evenodd" d="M114.838 37.6573L117.36 36.576C117.878 36.454 118.559 36.6505 118.686 37.1897L120.156 43.4425C120.303 44.0656 120.197 44.7957 119.567 45.0713L114.004 47.5038C113.122 47.8893 112.083 47.4825 111.698 46.6008L109.621 41.8509C108.98 40.3856 110.972 36.5506 109.843 33.9467C109.347 32.8018 112.14 32.4381 112.593 34.7421C112.68 35.1883 112.919 36.585 113.069 36.929C113.389 37.6581 114.086 37.9861 114.838 37.6573ZM105.931 41.9187L108.123 40.9602C108.233 40.9119 108.364 40.9633 108.413 41.0736L111.448 48.0158C111.497 48.1278 111.447 48.2565 111.335 48.3055L109.142 49.2635C109.03 49.3125 108.901 49.2621 108.852 49.1501L105.817 42.2079C105.768 42.0964 105.819 41.9677 105.931 41.9187Z" fill="white"/>
<rect x="14.2461" y="35.8025" width="65.6548" height="23.6928" rx="11.8464" transform="rotate(-5.61489 14.2461 35.8025)" fill="#FF0132"/>
<path d="M27.0446 44.9789C26.9867 44.6888 26.8397 44.4735 26.6034 44.3329C26.3671 44.1923 26.0601 44.1406 25.6824 44.1778C25.4258 44.203 25.2127 44.2606 25.0431 44.3506C24.8732 44.4382 24.7473 44.5496 24.6652 44.6848C24.5856 44.8197 24.5536 44.9671 24.5693 45.1269C24.5776 45.2606 24.6169 45.374 24.6871 45.4674C24.7599 45.5604 24.8543 45.6379 24.9704 45.6999C25.0862 45.7594 25.2182 45.8087 25.3663 45.8479C25.5141 45.8847 25.6709 45.9133 25.8367 45.9337L26.5207 46.0278C26.8523 46.0685 27.1596 46.1361 27.4427 46.2305C27.7257 46.3249 27.9752 46.4507 28.1912 46.608C28.4071 46.7652 28.5813 46.9583 28.7138 47.1873C28.8487 47.416 28.9327 47.6852 28.9655 47.9949C29.0079 48.4503 28.9305 48.8564 28.7333 49.2131C28.5383 49.5672 28.2344 49.8574 27.8215 50.0838C27.4108 50.3075 26.9028 50.4492 26.2975 50.5087C25.6971 50.5677 25.165 50.5271 24.7014 50.3869C24.2403 50.2465 23.8673 50.0081 23.5824 49.6719C23.2998 49.333 23.1261 48.8966 23.0614 48.3627L24.5831 48.2131C24.6245 48.4608 24.7164 48.662 24.8588 48.8167C25.0033 48.9687 25.1862 49.0766 25.4076 49.1404C25.6312 49.2015 25.8786 49.2188 26.1497 49.1921C26.4161 49.1659 26.6435 49.1045 26.832 49.0077C27.0229 48.9107 27.1661 48.7879 27.2614 48.6391C27.3568 48.4904 27.3957 48.3265 27.3781 48.1473C27.3617 47.9802 27.2982 47.8447 27.1878 47.7407C27.0797 47.6364 26.9274 47.5536 26.7307 47.4922C26.5364 47.4307 26.3004 47.3805 26.0228 47.3418L25.193 47.2181C24.5509 47.1272 24.0323 46.9374 23.6372 46.6486C23.2421 46.3599 23.0188 45.9406 22.9672 45.3908C22.9205 44.9407 23.0017 44.5354 23.2107 44.1751C23.4221 43.8145 23.7316 43.5188 24.1392 43.2881C24.5468 43.0573 25.0217 42.9153 25.5641 42.862C26.1161 42.8077 26.6072 42.8548 27.0374 43.0032C27.47 43.1513 27.8178 43.3824 28.0809 43.6963C28.344 44.0102 28.501 44.3884 28.5518 44.8307L27.0446 44.9789ZM33.5469 47.2915L33.232 44.0882L34.7791 43.9361L35.3276 49.5146L33.8422 49.6606L33.7425 48.6473L33.6844 48.653C33.5907 48.9923 33.4071 49.2756 33.1336 49.5029C32.8626 49.73 32.5177 49.8641 32.0988 49.9053C31.7259 49.942 31.3895 49.8895 31.0896 49.7479C30.7896 49.6062 30.5444 49.3871 30.3539 49.0905C30.1658 48.7936 30.0492 48.4274 30.0039 47.9918L29.6547 44.4399L31.2018 44.2878L31.5239 47.5637C31.5587 47.8928 31.6726 48.1443 31.8658 48.3185C32.0589 48.4926 32.302 48.5653 32.5949 48.5365C32.7813 48.5181 32.9515 48.4586 33.1054 48.3579C33.259 48.2548 33.3772 48.1137 33.4598 47.9344C33.5448 47.7549 33.5738 47.5406 33.5469 47.2915ZM36.5941 49.39L35.8629 41.9522L37.41 41.8L37.685 44.5965L37.7322 44.5919C37.7852 44.4351 37.8683 44.2729 37.9814 44.1054C38.0966 43.9351 38.2533 43.7877 38.4513 43.6631C38.6514 43.5359 38.9077 43.4569 39.22 43.4262C39.6268 43.3862 40.0125 43.4559 40.3773 43.6351C40.7418 43.812 41.0479 44.1033 41.2956 44.5092C41.5431 44.9127 41.6982 45.434 41.761 46.0732C41.8222 46.6955 41.7734 47.2307 41.6146 47.6791C41.4579 48.1247 41.2185 48.4746 40.8964 48.7287C40.5764 48.9802 40.2046 49.1268 39.7809 49.1684C39.4806 49.1979 39.2203 49.1734 38.9999 49.0948C38.782 49.016 38.599 48.9081 38.4511 48.7711C38.3029 48.6317 38.1861 48.4879 38.1007 48.3399L38.0317 48.3467L38.1195 49.2401L36.5941 49.39ZM37.8344 46.4519C37.867 46.7836 37.9414 47.0685 38.0577 47.3064C38.174 47.5443 38.3261 47.7237 38.514 47.8445C38.7016 47.963 38.9202 48.01 39.1695 47.9854C39.4213 47.9607 39.6276 47.8707 39.7884 47.7156C39.9489 47.558 40.0618 47.3514 40.1271 47.0956C40.1946 46.8372 40.2124 46.5457 40.1805 46.2213C40.1488 45.8993 40.0762 45.6204 39.9626 45.3847C39.849 45.1489 39.6982 44.9706 39.5103 44.8498C39.3224 44.7289 39.1014 44.6809 38.8471 44.7059C38.5953 44.7307 38.3888 44.8182 38.2276 44.9685C38.0688 45.1186 37.9554 45.3204 37.8874 45.574C37.8194 45.8276 37.8018 46.1202 37.8344 46.4519ZM47.3163 44.3097L45.9084 44.5361C45.8723 44.4174 45.8095 44.3136 45.7201 44.2246C45.6305 44.1332 45.5174 44.0648 45.381 44.0196C45.2467 43.9717 45.09 43.9565 44.9108 43.9741C44.6711 43.9977 44.4739 44.0684 44.3193 44.1863C44.1644 44.3017 44.0952 44.443 44.1116 44.6101C44.1247 44.7432 44.189 44.8506 44.3046 44.9321C44.4202 45.0136 44.6102 45.0695 44.8748 45.0997L45.9044 45.2039C46.4577 45.2619 46.8797 45.4013 47.1703 45.6221C47.4609 45.8429 47.6259 46.1542 47.6655 46.5561C47.7014 46.9217 47.6252 47.2531 47.4368 47.5503C47.2509 47.8473 46.9791 48.0916 46.6215 48.2832C46.2661 48.4722 45.8462 48.5904 45.362 48.638C44.6235 48.7106 44.0201 48.6147 43.5516 48.3503C43.0853 48.0833 42.7885 47.6871 42.661 47.1618L44.1749 46.9323C44.243 47.153 44.3713 47.3139 44.5597 47.4152C44.7479 47.514 44.98 47.5499 45.256 47.5227C45.5272 47.4961 45.74 47.4226 45.8944 47.3023C46.051 47.1793 46.1222 47.0342 46.1082 46.8669C46.092 46.7267 46.0214 46.6175 45.8964 46.5394C45.7711 46.4588 45.585 46.4062 45.3382 46.3816L44.3532 46.2841C43.7977 46.2287 43.3736 46.0797 43.0808 45.8371C42.7905 45.5943 42.6249 45.2647 42.5839 44.8483C42.5487 44.4899 42.6152 44.1717 42.7834 43.8936C42.9541 43.6152 43.2092 43.3885 43.5489 43.2133C43.891 43.0379 44.3006 42.9267 44.7775 42.8798C45.4821 42.8106 46.0512 42.905 46.4848 43.163C46.9208 43.4208 47.198 43.803 47.3163 44.3097ZM51.3408 48.0503C50.7694 48.1064 50.266 48.0337 49.8306 47.832C49.3974 47.6277 49.0493 47.3197 48.7864 46.908C48.5258 46.496 48.3679 46.0079 48.3124 45.4438C48.2562 44.8724 48.3171 44.3604 48.4951 43.9078C48.6752 43.4525 48.958 43.0837 49.3433 42.8013C49.7285 42.5165 50.2031 42.3464 50.7673 42.291C51.2539 42.2431 51.6887 42.2896 52.0717 42.4304C52.4547 42.5712 52.7684 42.7909 53.0129 43.0896C53.2574 43.3882 53.4117 43.752 53.4759 44.1808L52.0159 44.3243C51.9474 44.0499 51.8164 43.8367 51.623 43.6846C51.4317 43.5298 51.1945 43.4664 50.9112 43.4942C50.6715 43.5178 50.4685 43.6037 50.3022 43.7521C50.1381 43.8978 50.0185 44.099 49.9435 44.3557C49.8685 44.6125 49.8483 44.9163 49.8828 45.2674C49.9178 45.6233 49.996 45.9212 50.1173 46.1611C50.2411 46.4007 50.399 46.5771 50.5911 46.6902C50.7831 46.8033 50.9989 46.8481 51.2386 46.8246C51.4154 46.8072 51.5704 46.7553 51.7037 46.6688C51.8394 46.5821 51.9465 46.4653 52.0249 46.3182C52.1055 46.1685 52.1507 45.9942 52.1605 45.7952L53.6205 45.6517C53.6381 46.0802 53.5588 46.4669 53.3825 46.8118C53.2084 47.154 52.9486 47.4338 52.6033 47.6511C52.258 47.8684 51.8371 48.0015 51.3408 48.0503ZM54.8121 47.599L54.2636 42.0206L55.7635 41.8731L55.8592 42.8464L55.9173 42.8407C55.985 42.4845 56.13 42.2062 56.3523 42.0059C56.5744 41.8032 56.8416 41.6864 57.1539 41.6557C57.2314 41.6481 57.3154 41.6447 57.4059 41.6456C57.4965 41.6465 57.5765 41.6521 57.6459 41.6624L57.7809 43.0352C57.7061 43.0205 57.6037 43.011 57.4738 43.0067C57.3438 43.0024 57.2255 43.0054 57.119 43.0159C56.8914 43.0383 56.6929 43.1079 56.5235 43.2248C56.3562 43.339 56.2292 43.4884 56.1422 43.673C56.0576 43.8573 56.0265 44.0633 56.0489 44.2909L56.3592 47.4469L54.8121 47.599ZM58.9968 47.1876L58.4483 41.6091L59.9955 41.457L60.5439 47.0355L58.9968 47.1876ZM59.1548 40.8136C58.9248 40.8363 58.72 40.7794 58.5404 40.643C58.3629 40.504 58.2636 40.3268 58.2424 40.1113C58.2215 39.8982 58.2846 39.7075 58.4318 39.539C58.5812 39.3678 58.7709 39.271 59.001 39.2483C59.231 39.2257 59.4347 39.2839 59.6122 39.4229C59.7918 39.5593 59.8921 39.734 59.913 39.9471C59.9342 40.1625 59.8701 40.3559 59.7207 40.527C59.5735 40.6955 59.3849 40.791 59.1548 40.8136ZM61.8123 46.9108L61.0811 39.4729L62.6282 39.3208L62.9031 42.1172L62.9503 42.1126C63.0034 41.9558 63.0864 41.7936 63.1995 41.6261C63.3148 41.4558 63.4714 41.3084 63.6694 41.1839C63.8696 41.0566 64.1258 40.9776 64.4382 40.9469C64.8449 40.9069 65.2307 40.9766 65.5954 41.1558C65.96 41.3327 66.2661 41.6241 66.5138 42.0299C66.7612 42.4334 66.9164 42.9548 66.9792 43.5939C67.0404 44.2162 66.9916 44.7515 66.8327 45.1998C66.6761 45.6454 66.4367 45.9953 66.1146 46.2494C65.7946 46.5009 65.4228 46.6475 64.999 46.6891C64.6988 46.7186 64.4385 46.6941 64.2181 46.6156C64.0001 46.5368 63.8172 46.4289 63.6692 46.2918C63.5211 46.1524 63.4043 46.0086 63.3188 45.8606L63.2498 45.8674L63.3377 46.7608L61.8123 46.9108ZM63.0525 43.9727C63.0852 44.3044 63.1596 44.5892 63.2759 44.8271C63.3922 45.065 63.5443 45.2444 63.7322 45.3653C63.9198 45.4837 64.1383 45.5307 64.3877 45.5062C64.6395 45.4814 64.8458 45.3915 65.0066 45.2363C65.1671 45.0787 65.28 44.8721 65.3453 44.6163C65.4128 44.3579 65.4306 44.0664 65.3987 43.742C65.367 43.42 65.2944 43.1411 65.1807 42.9054C65.0671 42.6696 64.9164 42.4913 64.7285 42.3705C64.5406 42.2496 64.3195 42.2017 64.0653 42.2267C63.8135 42.2514 63.607 42.3389 63.4457 42.4892C63.2869 42.6393 63.1735 42.8411 63.1056 43.0947C63.0376 43.3483 63.0199 43.641 63.0525 43.9727ZM70.838 46.1334C70.2642 46.1898 69.7588 46.1222 69.322 45.9304C68.8873 45.7361 68.5375 45.4355 68.2726 45.0289C68.0075 44.6198 67.846 44.1211 67.7882 43.5328C67.7317 42.9589 67.7936 42.4444 67.9738 41.9891C68.1539 41.5338 68.4342 41.1652 68.8148 40.8833C69.1977 40.6012 69.6628 40.4333 70.21 40.3795C70.578 40.3433 70.9264 40.3689 71.2553 40.4564C71.5863 40.5412 71.882 40.6894 72.1424 40.9009C72.4051 41.1122 72.6206 41.3892 72.7888 41.732C72.9567 42.0724 73.064 42.4799 73.1106 42.9545L73.1524 43.3794L68.442 43.8425L68.3477 42.8837L71.6018 42.5638C71.5799 42.341 71.5121 42.1485 71.3983 41.9861C71.2846 41.8237 71.137 41.7025 70.9556 41.6226C70.7763 41.54 70.5741 41.5098 70.3489 41.5319C70.1141 41.555 69.9112 41.6299 69.7403 41.7567C69.5717 41.8809 69.4454 42.0387 69.3615 42.2303C69.2775 42.4195 69.2451 42.6244 69.2643 42.8449L69.3539 43.7565C69.3811 44.0325 69.4553 44.266 69.5768 44.457C69.7007 44.6477 69.8624 44.7882 70.0619 44.8786C70.2615 44.969 70.4908 45.0015 70.7499 44.976C70.9218 44.9591 71.0768 44.9194 71.2149 44.857C71.353 44.7945 71.4681 44.7098 71.5603 44.603C71.6524 44.4961 71.7182 44.3699 71.7577 44.2242L73.1979 44.178C73.1591 44.5289 73.0397 44.8438 72.8397 45.1226C72.642 45.3987 72.3734 45.6256 72.0339 45.8032C71.6967 45.9781 71.298 46.0882 70.838 46.1334Z" fill="white"/>
<rect x="61.4609" y="9.75049" width="64.5901" height="23.3086" rx="11.6543" transform="rotate(-20.6756 61.4609 9.75049)" fill="#2B2B2B"/>
<path d="M78.7196 7.87007C78.5515 7.7941 78.3824 7.83529 78.243 7.95759C78.1242 8.07212 78.0763 8.25222 78.1376 8.41465L79.5002 12.0253C76.8789 13.2463 75.1624 14.9603 74.4235 17.1155C73.2169 20.4901 74.8373 23.6783 74.9109 23.8134C74.9928 23.9681 75.1675 24.0642 75.3452 24.0433C75.5229 24.0224 75.6746 23.8728 75.7027 23.7002C76.4335 20.1105 80.1093 18.1216 81.3358 17.5654L82.6675 21.0943C82.7288 21.2567 82.8632 21.368 83.0288 21.3752C83.0976 21.3728 83.1661 21.3696 83.2263 21.3468C83.3071 21.3163 83.3933 21.2377 83.4597 21.1664L88.4428 12.6358C88.4931 12.5244 88.5158 12.4 88.4698 12.278C88.4237 12.156 88.3451 12.0698 88.233 12.0198L78.7196 7.87007Z" fill="white"/>
<path d="M95.5915 7.70325C95.4624 7.44244 95.2677 7.27547 95.0073 7.20234C94.7469 7.12921 94.442 7.15856 94.0927 7.29039C93.8553 7.37997 93.6676 7.48919 93.5295 7.61805C93.3905 7.74468 93.2993 7.88269 93.256 8.03209C93.2148 8.18065 93.2221 8.32882 93.2779 8.47661C93.3199 8.60146 93.3862 8.69922 93.4768 8.76991C93.5697 8.83975 93.6792 8.88924 93.8053 8.91839C93.9306 8.9453 94.0686 8.95846 94.2193 8.95787C94.3691 8.95503 94.5254 8.9421 94.6881 8.91907L95.3619 8.83363C95.6874 8.78757 95.9966 8.7732 96.2896 8.79051C96.5827 8.80783 96.8519 8.86357 97.0972 8.95774C97.3425 9.05192 97.5573 9.19083 97.7418 9.37449C97.9284 9.5573 98.077 9.7916 98.1874 10.0774C98.344 10.4992 98.3743 10.9048 98.2782 11.2941C98.1834 11.6803 97.9689 12.0337 97.6345 12.3543C97.3016 12.6718 96.8552 12.9362 96.2954 13.1475C95.74 13.357 95.2242 13.4545 94.748 13.4398C94.274 13.4242 93.8587 13.2932 93.5021 13.0466C93.147 12.7969 92.8704 12.4267 92.6725 11.936L94.0798 11.4049C94.1826 11.6297 94.3213 11.7973 94.496 11.9079C94.6722 12.0154 94.8736 12.0711 95.1002 12.0751C95.3282 12.076 95.5676 12.0292 95.8184 11.9345C96.0648 11.8416 96.2651 11.725 96.4194 11.5849C96.576 11.444 96.6806 11.2907 96.7332 11.125C96.7858 10.9593 96.7808 10.7937 96.7183 10.628C96.66 10.4734 96.5651 10.3609 96.4335 10.2903C96.3042 10.2189 96.1383 10.1791 95.9358 10.1712C95.7355 10.1623 95.4985 10.175 95.2249 10.2092L94.4049 10.3038C93.7717 10.3816 93.2305 10.3338 92.7814 10.1605C92.3322 9.98721 92.0129 9.64598 91.8233 9.13682C91.6639 8.72117 91.6374 8.31546 91.7439 7.91969C91.8526 7.52309 92.071 7.16309 92.3992 6.8397C92.7274 6.5163 93.1423 6.25996 93.6439 6.07067C94.1544 5.878 94.633 5.79716 95.0796 5.82817C95.5284 5.85832 95.9179 5.98889 96.2481 6.21987C96.5783 6.45084 96.8241 6.76996 96.9855 7.17721L95.5915 7.70325ZM100.186 8.16061L101.311 11.1433L99.8803 11.6833L97.2843 4.80429L98.6749 4.27951L99.6674 6.90952L99.7279 6.8867C99.7294 6.53822 99.8275 6.22875 100.022 5.9583C100.216 5.68562 100.509 5.47533 100.901 5.32744C101.259 5.19224 101.601 5.15272 101.927 5.20891C102.254 5.26201 102.546 5.40623 102.804 5.64156C103.063 5.87381 103.267 6.19188 103.417 6.5958L104.657 9.88079L103.226 10.4208L102.082 7.39106C101.965 7.07224 101.791 6.85522 101.56 6.74001C101.332 6.62395 101.073 6.62085 100.782 6.73071C100.587 6.80423 100.43 6.91073 100.311 7.0502C100.195 7.18882 100.124 7.35369 100.099 7.54479C100.075 7.7328 100.104 7.93807 100.186 8.16061ZM107.291 8.99804C106.962 9.12226 106.647 9.17586 106.346 9.15884C106.045 9.13958 105.776 9.04518 105.541 8.87563C105.307 8.703 105.126 8.4465 104.997 8.10613C104.889 7.81951 104.851 7.55893 104.882 7.3244C104.914 7.08986 104.998 6.87903 105.135 6.6919C105.272 6.50477 105.444 6.33746 105.652 6.18996C105.862 6.04161 106.09 5.90695 106.336 5.78599C106.624 5.6414 106.855 5.52102 107.028 5.42486C107.201 5.32645 107.318 5.23363 107.38 5.14638C107.441 5.05913 107.452 4.96064 107.41 4.85092L107.403 4.83077C107.322 4.61804 107.193 4.4788 107.015 4.41306C106.839 4.34648 106.629 4.35924 106.385 4.45136C106.127 4.54854 105.944 4.68296 105.834 4.85463C105.724 5.02405 105.677 5.20315 105.692 5.39193L104.328 5.78387C104.277 5.44502 104.307 5.12421 104.418 4.82145C104.528 4.51644 104.715 4.24362 104.98 4.003C105.246 3.75929 105.585 3.5597 105.997 3.40421C106.284 3.29604 106.571 3.22611 106.858 3.19442C107.148 3.16188 107.421 3.17769 107.678 3.24187C107.937 3.3052 108.168 3.42531 108.37 3.60221C108.572 3.77687 108.73 4.01759 108.846 4.32436L110.159 7.80417L108.802 8.31628L108.532 7.60083L108.492 7.61604C108.47 7.80854 108.413 7.99256 108.321 8.16811C108.227 8.34143 108.096 8.49955 107.928 8.64249C107.758 8.78319 107.546 8.9017 107.291 8.99804ZM107.328 7.85588C107.538 7.77645 107.709 7.66488 107.838 7.52118C107.968 7.37525 108.051 7.2133 108.089 7.03534C108.126 6.85738 108.111 6.67771 108.043 6.49633L107.836 5.94883C107.802 5.99484 107.751 6.04495 107.682 6.09916C107.614 6.15029 107.536 6.20409 107.447 6.26058C107.358 6.31484 107.268 6.36797 107.177 6.41998C107.086 6.46975 107.003 6.51503 106.929 6.5558C106.771 6.64381 106.639 6.73835 106.534 6.83941C106.428 6.94048 106.359 7.05001 106.324 7.16802C106.288 7.28379 106.296 7.40885 106.346 7.5432C106.42 7.73802 106.547 7.86031 106.727 7.91008C106.908 7.95676 107.108 7.9387 107.328 7.85588ZM111.269 7.38524L109.322 2.22599L110.71 1.70247L111.049 2.60266L111.103 2.58237C111.076 2.22667 111.143 1.92525 111.303 1.67813C111.462 1.42876 111.686 1.24957 111.975 1.14056C112.047 1.11352 112.126 1.08884 112.212 1.06653C112.298 1.04422 112.375 1.02907 112.444 1.02109L112.923 2.29075C112.848 2.29594 112.749 2.3131 112.624 2.34221C112.5 2.37133 112.388 2.40447 112.289 2.44166C112.079 2.52109 111.908 2.63798 111.777 2.79233C111.647 2.94358 111.565 3.118 111.529 3.31556C111.496 3.51228 111.519 3.71588 111.599 3.92637L112.7 6.84525L111.269 7.38524ZM117.289 5.22876C116.758 5.42904 116.261 5.49394 115.797 5.42348C115.334 5.34993 114.925 5.15385 114.569 4.83525C114.213 4.51441 113.932 4.08191 113.727 3.53777C113.526 3.00707 113.454 2.50243 113.508 2.02386C113.563 1.54529 113.735 1.12348 114.025 0.758426C114.316 0.392531 114.715 0.114093 115.221 -0.0768896C115.562 -0.205338 115.899 -0.270051 116.234 -0.27103C116.57 -0.275093 116.889 -0.209928 117.19 -0.0755349C117.494 0.0580128 117.77 0.266133 118.017 0.548826C118.263 0.82928 118.47 1.18895 118.635 1.62785L118.783 2.02084L114.427 3.66489L114.092 2.77815L117.102 1.64239C117.024 1.43638 116.911 1.27078 116.761 1.1456C116.611 1.02041 116.44 0.943033 116.247 0.913462C116.056 0.880806 115.856 0.903773 115.648 0.982363C115.431 1.06433 115.257 1.18739 115.127 1.35154C114.999 1.5126 114.919 1.69485 114.888 1.89828C114.857 2.09948 114.879 2.30239 114.953 2.50701L115.271 3.35009C115.368 3.60536 115.498 3.80818 115.662 3.95855C115.829 4.10807 116.018 4.20026 116.231 4.23511C116.444 4.26996 116.67 4.24218 116.909 4.15176C117.068 4.09176 117.205 4.01444 117.321 3.91979C117.436 3.82515 117.524 3.7153 117.584 3.59024C117.644 3.46517 117.674 3.32841 117.675 3.17994L119.031 2.76784C119.084 3.11117 119.051 3.44081 118.932 3.75676C118.815 4.06963 118.618 4.35381 118.341 4.6093C118.065 4.86171 117.714 5.0682 117.289 5.22876Z" fill="white"/>
<rect x="0.416504" y="-2.29688" width="40.6406" height="23.3086" rx="11.6543" transform="rotate(22.3981 0.416504 -2.29688)" fill="#2B2B2B"/>
<path d="M12.6518 19.4962L12.1563 17.3718C12.128 17.2523 12.1378 17.1279 12.1846 17.0144L13.4124 14.0352C14.2927 11.8993 13.341 9.46773 11.2896 8.47419L11.5284 7.89487C11.614 7.68701 11.5144 7.44763 11.3065 7.36197C11.0987 7.27631 10.8593 7.37597 10.7736 7.58382L10.5349 8.16314C8.37917 7.42301 5.99144 8.47556 5.11026 10.6137L3.88246 13.5928C3.83568 13.7063 3.7546 13.8005 3.65073 13.8664L1.80235 15.0248C1.39731 15.2795 1.44846 15.8835 1.88995 16.0654L11.8542 20.172C12.2957 20.354 12.7582 19.96 12.6496 19.4953L12.6518 19.4962Z" fill="white"/>
<path d="M6.01744 20.1946C6.95498 20.581 8.02909 20.1338 8.41548 19.1963L5.01914 17.7965C4.63275 18.7341 5.0799 19.8082 6.01744 20.1946Z" fill="white"/>
<path d="M26.054 18.2034L26.5133 19.3067L20.9961 21.6044L18.6989 16.0861L19.8022 15.6268L21.6398 20.041L26.054 18.2034Z" fill="white"/>
<rect x="121.227" y="14.5596" width="34.6641" height="34.6641" rx="17.332" transform="rotate(-31.383 121.227 14.5596)" fill="#FF0132"/>
<path d="M152.217 18.9785C152.836 19.9935 153.009 21.1064 152.736 22.3173C152.468 23.5087 151.731 24.6379 150.525 25.7051L151.753 27.7169L149.197 29.2758L148.025 27.3546C147.089 27.8591 146.135 28.2508 145.161 28.5298C144.199 28.8014 143.343 28.9339 142.593 28.9273L142.069 24.9696C142.887 24.9515 143.737 24.8227 144.619 24.5832C145.493 24.3316 146.275 23.9958 146.963 23.5756C147.555 23.2145 147.945 22.9021 148.133 22.6386C148.313 22.363 148.333 22.1104 148.193 21.8808C148.03 21.615 147.74 21.5188 147.32 21.5923C146.913 21.6584 146.281 21.845 145.424 22.1523C144.32 22.5439 143.371 22.8239 142.579 22.9924C141.779 23.1487 140.975 23.1085 140.168 22.8717C139.353 22.6227 138.665 22.0391 138.105 21.1208C137.456 20.0575 137.28 18.9131 137.577 17.6875C137.886 16.4545 138.697 15.2968 140.01 14.2143L138.805 12.2387L141.36 10.6798L142.543 12.6192C144.074 11.8676 145.514 11.4699 146.864 11.426L147.467 15.3103C145.839 15.4412 144.47 15.8456 143.358 16.5237C142.259 17.1945 141.871 17.7956 142.195 18.3273C142.35 18.581 142.631 18.6749 143.038 18.6088C143.438 18.5306 144.057 18.3355 144.895 18.0235C145.972 17.6151 146.916 17.3291 147.728 17.1654C148.533 16.9895 149.339 17.0201 150.147 17.2569C150.967 17.4864 151.656 18.0602 152.217 18.9785Z" fill="white"/>
<path d="M36.0108 11.4921C33.2328 5.14151 36.1288 -2.2587 42.4794 -5.03677C48.8299 -7.81485 56.2301 -4.91878 59.0082 1.43176C61.7863 7.78231 58.8902 15.1825 52.5397 17.9606C46.1891 20.7387 38.7889 17.8426 36.0108 11.4921Z" fill="#FF0132"/>
<path fill-rule="evenodd" clip-rule="evenodd" d="M48.3166 -0.218171C49.8287 -0.879617 51.5906 -0.190077 52.2521 1.32196L56.6049 11.2723L51.5782 9.77472C51.3074 9.69404 51.0167 9.71191 50.7578 9.82517L45.184 12.2635C43.672 12.9249 41.91 12.2354 41.2486 10.7233L39.564 6.87242C38.9025 5.36039 39.5921 3.59843 41.1041 2.93698L48.3166 -0.218171ZM48.9469 1.86736L42.2063 4.81607C41.8778 4.95976 41.728 5.34253 41.8717 5.67101C42.0154 5.99949 42.3982 6.14928 42.7266 6.00559L49.4673 3.05688C49.7957 2.91319 49.9455 2.53042 49.8018 2.20194C49.6581 1.87347 49.2754 1.72367 48.9469 1.86736ZM49.8148 3.84985L43.0742 6.79855C42.7457 6.94225 42.5959 7.32502 42.7396 7.65349C42.8833 7.98197 43.2661 8.13177 43.5946 7.98807L50.3352 5.03937C50.6636 4.89567 50.8134 4.5129 50.6697 4.18443C50.5261 3.85595 50.1433 3.70615 49.8148 3.84985ZM43.9399 8.78121L50.6805 5.8325C51.009 5.68881 51.3918 5.8386 51.5355 6.16708C51.6792 6.49556 51.5294 6.87833 51.2009 7.02202L44.4603 9.97073C44.1318 10.1144 43.749 9.96462 43.6053 9.63615C43.4617 9.30767 43.6114 8.9249 43.9399 8.78121Z" fill="white"/>
</g>
<defs>
<clipPath id="clip0_107_775">
<rect width="158.977" height="47.8125" fill="white" transform="translate(0.5 0.09375)"/>
</clipPath>
</defs>
</svg>
