<svg width="98" height="68" viewBox="0 0 98 68" fill="none" xmlns="http://www.w3.org/2000/svg">
<path fill-rule="evenodd" clip-rule="evenodd" d="M49.1051 0.610474C49.0065 0.610574 48.9086 0.616315 48.81 0.616964C48.2645 0.620535 47.7199 0.627354 47.1772 0.647047C47.0187 0.652782 46.8616 0.665722 46.7033 0.672831C46.2163 0.694732 45.7294 0.717511 45.245 0.752321C45.0384 0.767145 44.8328 0.788871 44.6268 0.806032C44.2117 0.840615 43.7968 0.875934 43.3839 0.919893C43.121 0.947843 42.8595 0.980563 42.5976 1.01227C42.2242 1.05753 41.8511 1.10332 41.4796 1.15621C41.2078 1.19486 40.9383 1.24026 40.6675 1.28296C40.3266 1.33676 39.9856 1.39036 39.6465 1.45053C39.3533 1.50251 39.0615 1.55924 38.7698 1.61595C38.4446 1.67915 38.1194 1.74242 37.7961 1.81144C37.511 1.8723 37.2268 1.93731 36.9431 2.00264C36.6046 2.08061 36.267 2.1611 35.9307 2.24541C35.6745 2.30958 35.4187 2.37521 35.1638 2.44305C34.7867 2.54346 34.4114 2.64837 34.0372 2.7567C33.8204 2.81942 33.6046 2.8847 33.3888 2.95005C33.0029 3.06699 32.619 3.1878 32.2364 3.31312C32.0306 3.38047 31.825 3.44745 31.6203 3.51721C31.2157 3.65511 30.8125 3.79966 30.4118 3.94688C30.2246 4.01563 30.036 4.08234 29.8496 4.15311C29.391 4.32734 28.937 4.51031 28.4839 4.69664C28.3838 4.7378 28.2822 4.77521 28.1823 4.81695C27.6763 5.02859 27.1754 5.24991 26.6766 5.47648C26.6009 5.51088 26.5239 5.54271 26.4483 5.57745C25.8867 5.83566 25.3307 6.10403 24.7789 6.38092C24.7769 6.38193 24.7745 6.38197 24.7724 6.38308C23.6338 6.95458 22.5145 7.56447 21.4206 8.21345C20.8736 8.53795 20.3336 8.87337 19.7985 9.21672C19.2752 9.55255 18.7569 9.89651 18.2454 10.2501C18.1824 10.2936 18.1209 10.3394 18.058 10.3833C17.6142 10.6928 17.1742 11.0079 16.7397 11.3307C16.6415 11.4036 16.5445 11.4783 16.4468 11.5519C16.0395 11.8588 15.6369 12.1703 15.2383 12.4886C15.1545 12.5555 15.0718 12.6232 14.9884 12.6906C14.5887 13.0137 14.1921 13.3421 13.8015 13.6766C13.6916 13.7708 13.5833 13.8673 13.4741 13.9624C13.1332 14.259 12.7952 14.5594 12.4617 14.8647C12.3104 15.0031 12.1612 15.1434 12.0114 15.2836C11.6965 15.5785 11.3847 15.8768 11.0766 16.1794C10.9531 16.3006 10.8305 16.4222 10.7082 16.5446C10.3665 16.8868 10.0286 17.2329 9.69579 17.5844C9.61112 17.6739 9.52569 17.7629 9.44161 17.853C9.08436 18.2356 8.73261 18.6239 8.38609 19.0174C8.3162 19.0967 8.2466 19.1761 8.17715 19.2558C7.80849 19.6794 7.44743 20.1091 7.09148 20.5448C7.05729 20.5867 7.02214 20.6275 6.98808 20.6694C6.59323 21.1557 6.20564 21.6486 5.82701 22.1496C5.43913 22.6628 5.05785 23.1831 4.68749 23.7114C3.55357 25.3291 2.50664 27.02 1.54681 28.7729C1.07048 29.6083 0.422826 31.6515 0.430985 33.7828C0.43963 36.0374 1.19122 38.3383 1.71914 39.2503C10.5915 55.2469 27.046 65.76 45.4388 67.0281C46.0519 67.0703 46.6677 67.101 47.2849 67.1226C47.9021 67.1442 48.5209 67.1563 49.1417 67.1569C49.7503 67.1559 50.3569 67.1437 50.962 67.1226C51.5791 67.101 52.1949 67.0703 52.808 67.0281C71.2009 65.76 87.6553 55.2469 96.5277 39.2503C97.0556 38.3383 97.8073 36.0374 97.8159 33.7828C97.824 31.6515 97.1764 29.6083 96.7 28.7729C95.7402 27.02 94.6933 25.3291 93.5594 23.7114C93.1955 23.1924 92.8221 22.682 92.4414 22.1775C92.4346 22.1685 92.4288 22.1587 92.422 22.1496C92.4013 22.1223 92.3802 22.0953 92.3595 22.068C92.001 21.5955 91.6339 21.1288 91.2609 20.6694C91.251 20.6572 91.2407 20.6451 91.2308 20.6329C91.2063 20.6029 91.1799 20.5748 91.1554 20.5448C90.7994 20.1091 90.4383 19.6794 90.0697 19.2558C90.0003 19.1761 89.9306 19.0967 89.8607 19.0174C89.5085 18.6175 89.1513 18.2224 88.788 17.8336C88.7225 17.7636 88.6557 17.6949 88.5898 17.6252C88.233 17.2475 87.8713 16.875 87.5042 16.5081C87.4019 16.406 87.2991 16.3043 87.1961 16.2031C86.8799 15.8921 86.5589 15.5865 86.2354 15.2836C86.0857 15.1434 85.9365 15.0031 85.7852 14.8647C85.4516 14.5594 85.1136 14.259 84.7728 13.9624C84.6635 13.8673 84.5553 13.7708 84.4453 13.6766C84.0547 13.3421 83.6582 13.0137 83.2584 12.6906C83.1751 12.6232 83.0923 12.5555 83.0085 12.4886C82.6099 12.1703 82.2074 11.8588 81.8001 11.5519C81.7024 11.4783 81.6054 11.4036 81.5071 11.3307C81.0727 11.0079 80.6327 10.6928 80.1888 10.3833C80.126 10.3394 80.0644 10.2936 80.0014 10.2501C79.4899 9.89651 78.9717 9.55255 78.4483 9.21672C77.9132 8.87337 77.3733 8.53795 76.8263 8.21345C75.7323 7.56447 74.613 6.95458 73.4745 6.38308C73.4725 6.38208 73.4702 6.38204 73.468 6.38092C72.9162 6.10403 72.3601 5.83566 71.7986 5.57745C71.723 5.5427 71.646 5.51089 71.5702 5.47648C71.0715 5.24991 70.5705 5.02859 70.0645 4.81695C69.9647 4.77519 69.8631 4.7378 69.7629 4.69664C69.3099 4.51031 68.8558 4.32734 68.3972 4.15311C68.2109 4.08234 68.0222 4.01564 67.835 3.94688C67.4343 3.79966 67.0312 3.65511 66.6266 3.51721C66.4218 3.44745 66.2162 3.38048 66.0105 3.31312C65.6279 3.1878 65.2439 3.06699 64.858 2.95005C64.6423 2.88469 64.4264 2.81942 64.2097 2.7567C63.8354 2.64837 63.4602 2.54346 63.0831 2.44305C62.8282 2.37522 62.5724 2.30959 62.3162 2.24541C61.977 2.16038 61.6365 2.07907 61.2952 2.0005C61.0197 1.93713 60.7447 1.87488 60.468 1.81574C60.1289 1.74323 59.788 1.67561 59.4469 1.6095C59.1709 1.55602 58.8949 1.50193 58.6176 1.45267C58.2663 1.39025 57.9131 1.33426 57.5599 1.27866C57.2967 1.23724 57.0336 1.19378 56.7694 1.15621C56.3972 1.10322 56.0234 1.05762 55.6492 1.01227C55.3873 0.980542 55.1258 0.947843 54.863 0.919893C54.4501 0.875929 54.0352 0.840621 53.6201 0.806032C53.414 0.788882 53.2084 0.767156 53.0019 0.752321C52.5174 0.717522 52.0306 0.694753 51.5435 0.672831C51.3852 0.665689 51.2282 0.652782 51.0696 0.647047C50.527 0.627365 49.9824 0.62047 49.4368 0.616964C49.326 0.616269 49.216 0.610582 49.1051 0.610474ZM49.4929 12.7764C58.4243 12.8494 66.6511 18.6544 69.3688 27.6256C69.3701 27.6298 69.3719 27.6343 69.3731 27.6385C69.3742 27.6421 69.3742 27.6458 69.3753 27.6493C72.7178 38.6916 66.4507 50.3472 55.3736 53.6848C44.2952 57.0222 32.6003 50.7764 29.2551 39.7336C29.254 39.7301 29.2541 39.7264 29.2529 39.7228C29.2516 39.7186 29.2498 39.7142 29.2486 39.7099C25.9057 28.6665 32.178 17.0086 43.2568 13.6723C45.3338 13.0469 47.4318 12.7596 49.4929 12.7764ZM49.3119 17.5844C45.0307 17.5845 40.9248 19.2803 37.8975 22.2987C34.8702 25.3171 33.1693 29.4109 33.1691 33.6796C33.1693 37.9483 34.8702 42.042 37.8975 45.0604C40.9248 48.0788 45.0307 49.7746 49.3119 49.7748C53.5932 49.7746 57.6991 48.0788 60.7264 45.0604C63.7537 42.042 65.4546 37.9483 65.4548 33.6796C65.4546 29.4109 63.7537 25.3171 60.7264 22.2987C57.6991 19.2803 53.5932 17.5845 49.3119 17.5844Z" fill="#0ABF8F"/>
</svg>
