<svg width="327" height="47" viewBox="0 0 327 47" fill="none" xmlns="http://www.w3.org/2000/svg">
<rect x="0.1875" y="16.8676" width="325.699" height="8.83679" rx="4.4184" fill="#FDB274"/>
<rect x="0.1875" y="16.8676" width="286.564" height="8.83679" rx="4.4184" fill="#E94B0D"/>
<path d="M286.12 10.5555L292.133 0.140754H280.107L286.12 10.5555Z" fill="#E94B0D"/>
<path d="M4.29066 46.2078C3.15666 46.2078 2.25206 45.7879 1.57686 44.9482C0.910313 44.1086 0.57704 42.9789 0.57704 41.5592C0.57704 40.1396 0.914642 39.0099 1.58984 38.1702C2.26505 37.3306 3.16965 36.9107 4.30364 36.9107C5.44629 36.9107 6.34656 37.3306 7.00445 38.1702C7.671 39.0013 8.00427 40.1309 8.00427 41.5592C8.00427 42.9789 7.671 44.1086 7.00445 44.9482C6.34656 45.7879 5.44196 46.2078 4.29066 46.2078ZM4.30364 44.7015C5.54151 44.7015 6.16045 43.6541 6.16045 41.5592C6.16045 40.5724 6.00896 39.802 5.70599 39.248C5.40301 38.694 4.93556 38.417 4.30364 38.417C3.66306 38.417 3.18696 38.694 2.87533 39.248C2.57235 39.802 2.42086 40.5724 2.42086 41.5592C2.42086 42.5461 2.57235 43.3165 2.87533 43.8705C3.18696 44.4245 3.66306 44.7015 4.30364 44.7015ZM9.22118 42.0916V40.2088H11.1169V42.0916H9.22118ZM9.22118 46V44.1172H11.1169V46H9.22118ZM16.0448 46.2078C14.9108 46.2078 14.0062 45.7879 13.331 44.9482C12.6645 44.1086 12.3312 42.9789 12.3312 41.5592C12.3312 40.1396 12.6688 39.0099 13.344 38.1702C14.0192 37.3306 14.9238 36.9107 16.0578 36.9107C17.2005 36.9107 18.1007 37.3306 18.7586 38.1702C19.4252 39.0013 19.7584 40.1309 19.7584 41.5592C19.7584 42.9789 19.4252 44.1086 18.7586 44.9482C18.1007 45.7879 17.1961 46.2078 16.0448 46.2078ZM16.0578 44.7015C17.2957 44.7015 17.9146 43.6541 17.9146 41.5592C17.9146 40.5724 17.7631 39.802 17.4602 39.248C17.1572 38.694 16.6897 38.417 16.0578 38.417C15.4172 38.417 14.9411 38.694 14.6295 39.248C14.3265 39.802 14.175 40.5724 14.175 41.5592C14.175 42.5461 14.3265 43.3165 14.6295 43.8705C14.9411 44.4245 15.4172 44.7015 16.0578 44.7015ZM24.5087 46.2078C23.3747 46.2078 22.4701 45.7879 21.7949 44.9482C21.1284 44.1086 20.7951 42.9789 20.7951 41.5592C20.7951 40.1396 21.1327 39.0099 21.8079 38.1702C22.4831 37.3306 23.3877 36.9107 24.5217 36.9107C25.6643 36.9107 26.5646 37.3306 27.2225 38.1702C27.889 39.0013 28.2223 40.1309 28.2223 41.5592C28.2223 42.9789 27.889 44.1086 27.2225 44.9482C26.5646 45.7879 25.66 46.2078 24.5087 46.2078ZM24.5217 44.7015C25.7596 44.7015 26.3785 43.6541 26.3785 41.5592C26.3785 40.5724 26.227 39.802 25.924 39.248C25.6211 38.694 25.1536 38.417 24.5217 38.417C23.8811 38.417 23.405 38.694 23.0934 39.248C22.7904 39.802 22.6389 40.5724 22.6389 41.5592C22.6389 42.5461 22.7904 43.3165 23.0934 43.8705C23.405 44.4245 23.8811 44.7015 24.5217 44.7015Z" fill="#2B2B2B"/>
<path d="M294.71 46.1948C293.585 46.1948 292.723 45.9091 292.126 45.3378C291.529 44.7578 291.222 43.9701 291.204 42.9746H292.892C292.962 44.1778 293.546 44.7794 294.645 44.7794C295.139 44.7794 295.524 44.6539 295.801 44.4029C296.078 44.1432 296.216 43.7883 296.216 43.3381C296.216 42.9053 296.078 42.5677 295.801 42.3253C295.524 42.083 295.117 41.9618 294.58 41.9618H294.035V40.6243H294.541C294.974 40.6243 295.32 40.5205 295.58 40.3127C295.848 40.105 295.983 39.815 295.983 39.4427C295.983 39.0878 295.87 38.8065 295.645 38.5987C295.42 38.3823 295.113 38.2741 294.723 38.2741C294.238 38.2741 293.862 38.417 293.593 38.7026C293.334 38.9883 293.195 39.3735 293.178 39.8583H291.49C291.525 38.958 291.819 38.2438 292.373 37.7158C292.927 37.1877 293.71 36.9237 294.723 36.9237C295.658 36.9237 296.398 37.1401 296.944 37.5729C297.498 38.0058 297.775 38.5901 297.775 39.3259C297.775 40.2435 297.268 40.8667 296.255 41.1957V41.2216C297.459 41.516 298.06 42.2604 298.06 43.455C298.06 44.338 297.744 45.0175 297.112 45.4936C296.48 45.961 295.68 46.1948 294.71 46.1948ZM302.558 46.1948C301.51 46.1948 300.645 45.9524 299.961 45.4676C299.277 44.9742 298.935 44.2947 298.935 43.429C298.935 42.8837 299.082 42.4076 299.377 42.0007C299.671 41.5852 300.065 41.2822 300.558 41.0918V41.0528C299.727 40.672 299.312 40.0833 299.312 39.2869C299.312 38.5425 299.606 37.9625 300.195 37.547C300.783 37.1315 301.567 36.9237 302.545 36.9237C303.514 36.9237 304.285 37.1315 304.856 37.547C305.427 37.9538 305.713 38.5252 305.713 39.261C305.713 40.0573 305.302 40.6503 304.48 41.0399V41.0788C304.973 41.2519 305.363 41.5419 305.648 41.9488C305.943 42.347 306.09 42.8144 306.09 43.3511C306.09 44.2427 305.761 44.9396 305.103 45.4417C304.445 45.9437 303.597 46.1948 302.558 46.1948ZM302.519 44.7665C303.038 44.7665 303.458 44.6409 303.778 44.3899C304.107 44.1302 304.272 43.7883 304.272 43.3641C304.272 42.9053 304.116 42.5417 303.804 42.2734C303.501 41.9964 303.082 41.8579 302.545 41.8579C302 41.8579 301.567 41.9964 301.246 42.2734C300.926 42.5417 300.766 42.9053 300.766 43.3641C300.766 43.7969 300.922 44.1389 301.233 44.3899C301.554 44.6409 301.982 44.7665 302.519 44.7665ZM302.519 40.6243C302.969 40.6243 303.324 40.5161 303.584 40.2997C303.852 40.0747 303.986 39.7847 303.986 39.4298C303.986 39.0748 303.856 38.7935 303.597 38.5858C303.337 38.3693 302.978 38.2611 302.519 38.2611C302.06 38.2611 301.697 38.3693 301.428 38.5858C301.168 38.7935 301.039 39.0748 301.039 39.4298C301.039 39.7847 301.168 40.0747 301.428 40.2997C301.697 40.5161 302.06 40.6243 302.519 40.6243ZM307.15 42.0916V40.2088H309.046V42.0916H307.15ZM307.15 46V44.1172H309.046V46H307.15ZM313.974 46.2078C312.84 46.2078 311.935 45.7879 311.26 44.9482C310.594 44.1086 310.26 42.9789 310.26 41.5592C310.26 40.1396 310.598 39.0099 311.273 38.1702C311.948 37.3306 312.853 36.9107 313.987 36.9107C315.13 36.9107 316.03 37.3306 316.688 38.1702C317.354 39.0013 317.688 40.1309 317.688 41.5592C317.688 42.9789 317.354 44.1086 316.688 44.9482C316.03 45.7879 315.125 46.2078 313.974 46.2078ZM313.987 44.7015C315.225 44.7015 315.844 43.6541 315.844 41.5592C315.844 40.5724 315.692 39.802 315.389 39.248C315.086 38.694 314.619 38.417 313.987 38.417C313.346 38.417 312.87 38.694 312.559 39.248C312.256 39.802 312.104 40.5724 312.104 41.5592C312.104 42.5461 312.256 43.3165 312.559 43.8705C312.87 44.4245 313.346 44.7015 313.987 44.7015ZM322.438 46.2078C321.304 46.2078 320.399 45.7879 319.724 44.9482C319.057 44.1086 318.724 42.9789 318.724 41.5592C318.724 40.1396 319.062 39.0099 319.737 38.1702C320.412 37.3306 321.317 36.9107 322.451 36.9107C323.593 36.9107 324.494 37.3306 325.152 38.1702C325.818 39.0013 326.151 40.1309 326.151 41.5592C326.151 42.9789 325.818 44.1086 325.152 44.9482C324.494 45.7879 323.589 46.2078 322.438 46.2078ZM322.451 44.7015C323.689 44.7015 324.308 43.6541 324.308 41.5592C324.308 40.5724 324.156 39.802 323.853 39.248C323.55 38.694 323.083 38.417 322.451 38.417C321.81 38.417 321.334 38.694 321.022 39.248C320.719 39.802 320.568 40.5724 320.568 41.5592C320.568 42.5461 320.719 43.3165 321.022 43.8705C321.334 44.4245 321.81 44.7015 322.451 44.7015Z" fill="#2B2B2B"/>
</svg>
