<svg width="77" height="72" viewBox="0 0 77 72" fill="none" xmlns="http://www.w3.org/2000/svg">
<path fill-rule="evenodd" clip-rule="evenodd" d="M19.081 8.51993C19.3129 8.501 19.5448 8.4868 19.7861 8.4868H36.6997C36.9316 8.4868 37.1729 8.501 37.4048 8.51993L38.7536 5.40132C39.383 3.9485 39.0044 2.30161 37.8639 1.2699C36.9458 0.446468 35.6397 0.332891 34.6033 0.995429L33.6095 1.63429C32.7056 2.21164 31.6125 2.21164 30.6991 1.63429L29.6912 0.990692C28.7873 0.413346 27.6941 0.413346 26.7808 0.990692L25.7775 1.63429C24.8689 2.21164 23.7805 2.21164 22.8672 1.63429L21.8781 0.995429C20.8417 0.332891 19.5403 0.44648 18.6222 1.2699C17.4817 2.29683 17.1032 3.94838 17.7326 5.40132L19.081 8.51993ZM28.2382 71.9667C12.8814 71.9667 0.430908 60.2021 0.430908 45.6787C0.430908 35.8731 6.19964 26.5263 14.6283 20.2277C15.9108 21.6237 17.7469 22.504 19.7866 22.504H36.7002C38.7304 22.504 40.5712 21.619 41.8537 20.2277C50.2773 26.5265 56.056 35.8729 56.056 45.6787C56.056 60.1971 43.595 71.9667 28.2382 71.9667ZM34.2341 46.3692C34.0211 46.0521 33.7608 45.7398 33.4485 45.4417C32.3316 44.3532 30.8977 44.0125 29.3786 43.6575C28.1908 43.3783 26.9367 43.0802 26.2789 42.4082C26.1511 42.2757 26.0612 42.1101 25.995 41.9255C25.9003 41.651 25.8861 41.3482 25.9571 41.0406C26.0234 40.7566 26.1559 40.4916 26.3736 40.2786C26.5439 40.113 26.7711 39.9663 27.0645 39.8717C27.1733 39.8338 27.2774 39.8054 27.3768 39.777C28.1387 39.583 29.0048 39.6114 29.7335 39.8764C30.3109 40.0893 30.7888 40.4821 30.9828 41.0642C31.0112 41.1257 31.0207 41.1825 31.0349 41.2299C31.2857 42.2662 32.3362 42.8956 33.3727 42.6449C34.4091 42.3941 35.0385 41.3435 34.7877 40.3071C34.7404 40.1367 34.693 39.9758 34.641 39.8244C34.021 38.0024 32.6676 36.8525 31.0633 36.2514C30.7794 36.1426 30.4813 36.0574 30.1784 35.9912V34.439C30.1784 33.3695 29.3076 32.5081 28.2381 32.5081C27.1685 32.5081 26.3072 33.3742 26.3072 34.439V36.067C26.1416 36.1143 25.9807 36.1617 25.8292 36.2137C24.9632 36.5071 24.2533 36.9567 23.6855 37.5104C22.8952 38.2817 22.3983 39.2377 22.1806 40.2268C21.9676 41.2016 22.0292 42.2332 22.3415 43.1703C22.5876 43.8802 22.9804 44.5474 23.5246 45.1012C24.9727 46.5872 26.7994 47.013 28.5125 47.4201C29.4969 47.652 30.4244 47.8791 30.7699 48.2104C30.8551 48.2956 30.9355 48.3902 31.0018 48.4943C31.1816 48.7688 31.2384 49.0669 31.2005 49.3461C31.1627 49.6632 31.0018 49.9708 30.7557 50.2216C30.6752 50.3068 30.5759 50.3873 30.4576 50.4677C30.3203 50.5529 30.1736 50.6334 30.0269 50.6949C29.3502 50.9788 28.5267 51.0451 27.7223 50.8274C26.9273 50.6144 26.1558 50.1033 25.5786 49.2279C25.4129 48.9676 25.2662 48.6884 25.1337 48.3855C24.7267 47.4012 23.6005 46.9327 22.6114 47.3444C21.6271 47.7561 21.1633 48.8871 21.5703 49.8667C21.7974 50.4109 22.0624 50.9031 22.3464 51.348C23.397 52.9475 24.8167 53.946 26.3168 54.443V56.175C26.3168 57.2445 27.1828 58.1059 28.2477 58.1059C29.3172 58.1059 30.188 57.2399 30.188 56.175V54.6748C30.647 54.5755 31.0919 54.443 31.5083 54.2679C31.8916 54.107 32.2512 53.9177 32.5778 53.7047C32.9138 53.4776 33.2356 53.2125 33.529 52.9144C34.3477 52.0768 34.8777 51.0026 35.0292 49.8668C35.1759 48.679 34.9439 47.4623 34.2341 46.3692ZM19.7859 18.6322H36.6994C38.4268 18.6322 39.8322 17.2172 39.8322 15.4899C39.8322 13.7625 38.4267 12.3571 36.6994 12.3571H19.7859C18.0585 12.3571 16.6435 13.7626 16.6435 15.4899C16.6435 17.2171 18.0585 18.6322 19.7859 18.6322ZM56.6563 11.7513H61.1V28.8781C61.1 29.5265 61.63 30.0659 62.2878 30.0659H69.6987C70.3565 30.0659 70.896 29.5265 70.896 28.8781V11.7513H75.3303C75.7136 11.7513 76.0496 11.5336 76.1963 11.1787C76.343 10.819 76.2626 10.4357 75.9881 10.1613L66.6512 0.824319C66.2915 0.459928 65.7 0.459928 65.3356 0.824319L55.9987 10.1613C55.7242 10.4357 55.6485 10.819 55.7905 11.1787C55.9466 11.5336 56.2729 11.7513 56.6563 11.7513Z" fill="#FF55E1"/>
</svg>
