<svg width="79" height="79" viewBox="0 0 79 79" fill="none" xmlns="http://www.w3.org/2000/svg">
<g clip-path="url(#clip0_386_818)">
<path fill-rule="evenodd" clip-rule="evenodd" d="M39.2235 0.484375C49.5548 0.484375 59.4629 4.58845 66.7682 11.8937C74.0735 19.199 78.1776 29.1071 78.1776 39.4384C78.1776 49.7696 74.0735 59.6777 66.7682 66.983C59.4629 74.2883 49.5548 78.3924 39.2235 78.3924C28.8923 78.3924 18.9842 74.2883 11.6789 66.983C4.3736 59.6777 0.269531 49.7696 0.269531 39.4384C0.269531 29.1071 4.3736 19.199 11.6789 11.8937C18.9842 4.58845 28.8923 0.484375 39.2235 0.484375Z" fill="#B5EFFF"/>
<path fill-rule="evenodd" clip-rule="evenodd" d="M48.961 77.1682C45.7789 77.9823 42.5071 78.3936 39.2225 78.3924C32.5904 78.3954 26.0676 76.7038 20.2728 73.4782C14.478 70.2526 9.60347 65.5999 6.11157 59.9616C10.7916 53.4173 17.3303 48.8319 25.6999 48.8319C40.1017 48.8319 47.6811 60.6906 48.7718 73.7124C48.8664 74.8254 48.9387 76.0051 48.9666 77.1626L48.961 77.1682ZM73.0234 58.8153C68.8147 66.1375 62.3488 71.9006 54.5926 75.2427C54.7596 74.5471 54.8152 73.8237 54.7484 73.0836C54.153 65.9272 51.7434 58.6427 47.0411 53.0056C46.7877 52.7033 46.5279 52.4065 46.262 52.1152C50.0139 50.2172 54.2523 49.4991 58.42 50.0553C62.5876 50.6115 66.4894 52.416 69.6122 55.2315L73.0234 58.8153ZM39.0778 31.0244C39.0778 27.711 37.7616 24.5333 35.4186 22.1904C33.0757 19.8475 29.8981 18.5313 26.5847 18.5312C23.2713 18.5313 20.0936 19.8475 17.7507 22.1904C15.4078 24.5333 14.0916 27.711 14.0916 31.0244C14.0916 34.3377 15.4078 37.5154 17.7507 39.8583C20.0936 42.2012 23.2713 43.5175 26.5847 43.5175C29.8981 43.5175 33.0757 42.2012 35.4186 39.8583C37.7616 37.5154 39.0778 34.3377 39.0778 31.0244ZM55.572 24.302C56.9313 24.302 58.2773 24.5697 59.5331 25.0899C60.7888 25.6101 61.9299 26.3725 62.891 27.3336C63.8522 28.2948 64.6146 29.4358 65.1348 30.6916C65.6549 31.9474 65.9227 33.2934 65.9227 34.6526C65.9227 36.0119 65.6549 37.3579 65.1348 38.6137C64.6146 39.8695 63.8522 41.0105 62.891 41.9717C61.9299 42.9328 60.7888 43.6952 59.5331 44.2154C58.2773 44.7356 56.9313 45.0033 55.572 45.0033C52.8269 45.0033 50.1942 43.9128 48.253 41.9717C46.3119 40.0305 45.2214 37.3978 45.2214 34.6526C45.2214 31.9075 46.3119 29.2748 48.253 27.3336C50.1942 25.3925 52.8269 24.302 55.572 24.302Z" fill="#069FFF"/>
</g>
<defs>
<clipPath id="clip0_386_818">
<rect width="77.908" height="77.908" fill="white" transform="translate(0.269531 0.484375)"/>
</clipPath>
</defs>
</svg>
