<svg width="99" height="67" viewBox="0 0 99 67" fill="none" xmlns="http://www.w3.org/2000/svg">
<path fill-rule="evenodd" clip-rule="evenodd" d="M49.6054 0.102905C49.5067 0.103006 49.4089 0.108747 49.3103 0.109396C48.7647 0.112967 48.2201 0.119785 47.6775 0.139479C47.5189 0.145214 47.3619 0.158154 47.2036 0.165263C46.7165 0.187163 46.2297 0.209942 45.7452 0.244752C45.5387 0.259576 45.3331 0.281303 45.127 0.298464C44.7119 0.333047 44.297 0.368365 43.8841 0.412325C43.6213 0.440275 43.3598 0.472995 43.0978 0.504699C42.7244 0.549962 42.3514 0.595756 41.9799 0.648639C41.7081 0.68729 41.4385 0.732693 41.1678 0.775389C40.8269 0.829188 40.4858 0.882794 40.1467 0.942959C39.8536 0.994941 39.5618 1.05168 39.27 1.10838C38.9449 1.17158 38.6197 1.23486 38.2963 1.30388C38.0112 1.36473 37.727 1.42974 37.4433 1.49508C37.1049 1.57304 36.7672 1.65353 36.4309 1.73784C36.1747 1.80201 35.9189 1.86764 35.664 1.93548C35.2869 2.03589 34.9117 2.1408 34.5374 2.24914C34.3207 2.31185 34.1048 2.37713 33.8891 2.44249C33.5032 2.55943 33.1192 2.68024 32.7366 2.80555C32.5309 2.8729 32.3253 2.93988 32.1205 3.00964C31.7159 3.14755 31.3128 3.2921 30.9121 3.43931C30.7249 3.50806 30.5362 3.57477 30.3499 3.64555C29.8913 3.81978 29.4372 4.00274 28.9842 4.18907C28.884 4.23023 28.7824 4.26764 28.6826 4.30938C28.1766 4.52102 27.6756 4.74234 27.1769 4.96891C27.1011 5.00331 27.0241 5.03514 26.9485 5.06988C26.387 5.32809 25.8309 5.59646 25.2791 5.87335C25.2771 5.87436 25.2748 5.8744 25.2726 5.87552C24.1341 6.44701 23.0148 7.0569 21.9208 7.70589C21.3738 8.03038 20.8339 8.3658 20.2988 8.70915C19.7754 9.04498 19.2572 9.38894 18.7457 9.74249C18.6826 9.78607 18.6211 9.83185 18.5583 9.87569C18.1144 10.1853 17.6744 10.5004 17.24 10.8231C17.1417 10.896 17.0447 10.9708 16.947 11.0444C16.5397 11.3512 16.1372 11.6627 15.7385 11.981C15.6548 12.0479 15.572 12.1156 15.4887 12.183C15.0889 12.5061 14.6924 12.8345 14.3018 13.1691C14.1918 13.2632 14.0836 13.3598 13.9743 13.4548C13.6335 13.7514 13.2955 14.0518 12.9619 14.3571C12.8106 14.4955 12.6614 14.6358 12.5117 14.776C12.1967 15.0709 11.8849 15.3692 11.5768 15.6719C11.4534 15.7931 11.3308 15.9146 11.2085 16.0371C10.8668 16.3792 10.5288 16.7253 10.196 17.0769C10.1114 17.1663 10.0259 17.2554 9.94185 17.3454C9.58461 17.728 9.23285 18.1164 8.88634 18.5098C8.81645 18.5891 8.74684 18.6685 8.67739 18.7483C8.30874 19.1718 7.94768 19.6016 7.59172 20.0373C7.55754 20.0791 7.52238 20.1199 7.48832 20.1619C7.09347 20.6481 6.70588 21.1411 6.32726 21.642C5.93937 22.1553 5.55809 22.6755 5.18774 23.2039C4.05381 24.8215 3.00689 26.5125 2.04705 28.2653C1.57072 29.1008 0.92307 31.144 0.931229 33.2752C0.939874 35.5298 1.69146 37.8307 2.21938 38.7427C11.0918 54.7394 27.5462 65.2525 45.9391 66.5205C46.5522 66.5628 47.1679 66.5934 47.7851 66.615C48.4023 66.6366 49.0211 66.6488 49.642 66.6494C50.2505 66.6484 50.8572 66.6362 51.4622 66.615C52.0794 66.5934 52.6952 66.5628 53.3083 66.5205C71.7011 65.2525 88.1556 54.7394 97.028 38.7427C97.5559 37.8307 98.3075 35.5298 98.3161 33.2752C98.3242 31.144 97.6766 29.1008 97.2003 28.2653C96.2404 26.5125 95.1935 24.8215 94.0596 23.2039C93.6958 22.6848 93.3224 22.1744 92.9416 21.67C92.9348 21.6609 92.9291 21.6511 92.9222 21.642C92.9016 21.6147 92.8805 21.5877 92.8598 21.5604C92.5012 21.0879 92.1342 20.6212 91.7612 20.1619C91.7512 20.1496 91.741 20.1376 91.731 20.1253C91.7066 20.0953 91.6801 20.0672 91.6556 20.0373C91.2997 19.6016 90.9386 19.1718 90.5699 18.7483C90.5005 18.6685 90.4309 18.5891 90.361 18.5098C90.0088 18.1099 89.6516 17.7148 89.2883 17.3261C89.2228 17.256 89.1559 17.1874 89.0901 17.1177C88.7332 16.7399 88.3715 16.3674 88.0044 16.0006C87.9022 15.8984 87.7994 15.7968 87.6964 15.6955C87.3801 15.3845 87.0591 15.0789 86.7356 14.776C86.5859 14.6358 86.4367 14.4955 86.2854 14.3571C85.9519 14.0518 85.6138 13.7514 85.273 13.4548C85.1638 13.3598 85.0555 13.2632 84.9456 13.1691C84.5549 12.8345 84.1584 12.5061 83.7587 12.183C83.6753 12.1156 83.5925 12.0479 83.5088 11.981C83.1102 11.6627 82.7076 11.3512 82.3003 11.0444C82.2026 10.9708 82.1056 10.896 82.0074 10.8231C81.5729 10.5004 81.1329 10.1853 80.6891 9.87569C80.6262 9.83187 80.5647 9.78604 80.5017 9.74249C79.9902 9.38894 79.4719 9.04498 78.9486 8.70915C78.4135 8.3658 77.8735 8.03038 77.3265 7.70589C76.2325 7.0569 75.1133 6.44701 73.9747 5.87552C73.9728 5.87451 73.9704 5.87447 73.9682 5.87335C73.4164 5.59646 72.8604 5.32809 72.2988 5.06988C72.2232 5.03513 72.1462 5.00332 72.0705 4.96891C71.5717 4.74234 71.0708 4.52102 70.5648 4.30938C70.4649 4.26762 70.3633 4.23024 70.2632 4.18907C69.8101 4.00274 69.356 3.81978 68.8975 3.64555C68.7111 3.57477 68.5225 3.50807 68.3353 3.43931C67.9345 3.2921 67.5314 3.14755 67.1268 3.00964C66.9221 2.93988 66.7165 2.87291 66.5107 2.80555C66.1281 2.68024 65.7442 2.55943 65.3583 2.44249C65.1425 2.37712 64.9266 2.31186 64.7099 2.24914C64.3356 2.1408 63.9604 2.03589 63.5833 1.93548C63.3284 1.86765 63.0726 1.80203 62.8164 1.73784C62.4773 1.65281 62.1367 1.5715 61.7954 1.49293C61.52 1.42956 61.245 1.36731 60.9682 1.30817C60.6291 1.23566 60.2883 1.16804 59.9472 1.10193C59.6711 1.04845 59.3952 0.994365 59.1178 0.945106C58.7666 0.882682 58.4134 0.826694 58.0602 0.771092C57.797 0.729671 57.5339 0.686216 57.2696 0.648639C56.8974 0.595651 56.5236 0.550051 56.1495 0.504699C55.8876 0.472973 55.6261 0.440275 55.3632 0.412325C54.9503 0.368361 54.5354 0.333053 54.1203 0.298464C53.9142 0.281313 53.7087 0.259587 53.5021 0.244752C53.0177 0.209953 52.5308 0.187185 52.0438 0.165263C51.8855 0.158121 51.7284 0.145214 51.5699 0.139479C51.0272 0.119796 50.4826 0.112902 49.9371 0.109396C49.8263 0.1087 49.7163 0.103013 49.6054 0.102905ZM49.9931 12.2689C58.9246 12.3419 67.1514 18.1468 69.869 27.118C69.8703 27.1223 69.8722 27.1267 69.8734 27.1309C69.8745 27.1345 69.8744 27.1382 69.8755 27.1418C73.218 38.184 66.9509 49.8397 55.8739 53.1773C44.7954 56.5146 33.1006 50.2688 29.7554 39.2261C29.7543 39.2225 29.7543 39.2188 29.7532 39.2152C29.7519 39.211 29.7501 39.2066 29.7489 39.2024C26.406 28.1589 32.6783 16.501 43.757 13.1647C45.8341 12.5393 47.932 12.252 49.9931 12.2689ZM49.8122 17.0768C45.5309 17.077 41.425 18.7728 38.3977 21.7912C35.3704 24.8096 33.6696 28.9033 33.6693 33.172C33.6696 37.4407 35.3704 41.5345 38.3977 44.5529C41.4251 47.5713 45.5309 49.2671 49.8122 49.2672C54.0935 49.2671 58.1993 47.5713 61.2267 44.5529C64.254 41.5345 65.9548 37.4407 65.955 33.172C65.9548 28.9033 64.254 24.8096 61.2267 21.7912C58.1993 18.7728 54.0935 17.077 49.8122 17.0768Z" fill="#0ABF8F"/>
</svg>
