<svg width="77" height="73" viewBox="0 0 77 73" fill="none" xmlns="http://www.w3.org/2000/svg">
<path fill-rule="evenodd" clip-rule="evenodd" d="M19.4353 8.90762C19.6672 8.88869 19.899 8.8745 20.1404 8.8745H37.054C37.2859 8.8745 37.5272 8.88869 37.7591 8.90762L39.1078 5.78901C39.7372 4.3362 39.3587 2.6893 38.2181 1.6576C37.3001 0.834163 35.994 0.720586 34.9575 1.38312L33.9638 2.02199C33.0599 2.59934 31.9667 2.59934 31.0534 2.02199L30.0454 1.37839C29.1415 0.801041 28.0484 0.801041 27.135 1.37839L26.1318 2.02199C25.2232 2.59934 24.1348 2.59934 23.2214 2.02199L22.2324 1.38312C21.196 0.720586 19.8946 0.834175 18.9765 1.6576C17.836 2.68453 17.4574 4.33608 18.0868 5.78901L19.4353 8.90762ZM28.5924 72.3544C13.2356 72.3544 0.785156 60.5898 0.785156 46.0664C0.785156 36.2608 6.55389 26.914 14.9826 20.6154C16.2651 22.0114 18.1012 22.8917 20.1408 22.8917H37.0544C39.0846 22.8917 40.9255 22.0067 42.208 20.6154C50.6315 26.9142 56.4102 36.2606 56.4102 46.0664C56.4102 60.5848 43.9492 72.3544 28.5924 72.3544ZM34.5883 46.7569C34.3754 46.4398 34.1151 46.1275 33.8027 45.8294C32.6859 44.7409 31.2519 44.4002 29.7329 44.0452C28.545 43.766 27.291 43.4679 26.6332 42.7959C26.5054 42.6634 26.4155 42.4978 26.3492 42.3132C26.2546 42.0387 26.2404 41.7359 26.3114 41.4283C26.3776 41.1443 26.5101 40.8793 26.7278 40.6663C26.8982 40.5007 27.1253 40.354 27.4187 40.2594C27.5276 40.2215 27.6317 40.1931 27.7311 40.1647C28.493 39.9707 29.3591 39.9991 30.0878 40.2641C30.6651 40.477 31.1431 40.8698 31.3371 41.4519C31.3654 41.5134 31.3749 41.5702 31.3891 41.6175C31.6399 42.6539 32.6905 43.2833 33.7269 43.0326C34.7633 42.7818 35.3927 41.7312 35.1419 40.6948C35.0946 40.5244 35.0473 40.3635 34.9952 40.2121C34.3753 38.3901 33.0218 37.2402 31.4176 36.6391C31.1336 36.5303 30.8355 36.4451 30.5326 36.3789V34.8267C30.5326 33.7572 29.6619 32.8958 28.5923 32.8958C27.5228 32.8958 26.6615 33.7619 26.6615 34.8267V36.4547C26.4958 36.502 26.3349 36.5493 26.1835 36.6014C25.3175 36.8948 24.6076 37.3444 24.0398 37.8981C23.2495 38.6694 22.7526 39.6254 22.5348 40.6144C22.3219 41.5893 22.3834 42.6209 22.6957 43.558C22.9418 44.2679 23.3346 44.9351 23.8788 45.4889C25.3269 46.9749 27.1536 47.4007 28.8668 47.8078C29.8511 48.0397 30.7786 48.2668 31.1241 48.5981C31.2093 48.6833 31.2898 48.7779 31.356 48.882C31.5359 49.1565 31.5926 49.4546 31.5548 49.7338C31.5169 50.0509 31.356 50.3585 31.1099 50.6093C31.0295 50.6945 30.9301 50.775 30.8118 50.8554C30.6746 50.9406 30.5279 51.0211 30.3812 51.0826C29.7044 51.3665 28.881 51.4328 28.0765 51.2151C27.2815 51.0021 26.5101 50.491 25.9328 49.6156C25.7672 49.3553 25.6205 49.0761 25.488 48.7732C25.081 47.7889 23.9547 47.3204 22.9657 47.7321C21.9813 48.1438 21.5176 49.2748 21.9245 50.2544C22.1517 50.7986 22.4167 51.2908 22.7006 51.7357C23.7512 53.3352 25.171 54.3337 26.671 54.8307V56.5627C26.671 57.6322 27.5371 58.4936 28.6019 58.4936C29.6714 58.4936 30.5422 57.6276 30.5422 56.5627V55.0625C31.0013 54.9632 31.4461 54.8306 31.8625 54.6555C32.2458 54.4947 32.6055 54.3054 32.932 54.0924C33.268 53.8652 33.5898 53.6002 33.8832 53.3021C34.7019 52.4645 35.232 51.3903 35.3834 50.2545C35.5301 49.0667 35.2982 47.85 34.5883 46.7569ZM20.1401 19.0199H37.0537C38.781 19.0199 40.1865 17.6049 40.1865 15.8775C40.1865 14.1502 38.7809 12.7448 37.0537 12.7448H20.1401C18.4128 12.7448 16.9978 14.1503 16.9978 15.8775C16.9978 17.6048 18.4128 19.0199 20.1401 19.0199ZM57.0105 12.139H61.4542V29.2658C61.4542 29.9142 61.9843 30.4536 62.6421 30.4536H70.053C70.7108 30.4536 71.2503 29.9142 71.2503 29.2658V12.139H75.6846C76.0679 12.139 76.4039 11.9213 76.5506 11.5664C76.6973 11.2067 76.6168 10.8234 76.3423 10.5489L67.0054 1.21201C66.6457 0.847623 66.0542 0.847623 65.6899 1.21201L56.3529 10.5489C56.0784 10.8234 56.0027 11.2067 56.1447 11.5664C56.3009 11.9213 56.6272 12.139 57.0105 12.139Z" fill="#F85E0B"/>
</svg>
