<svg width="92" height="66" viewBox="0 0 92 66" fill="none" xmlns="http://www.w3.org/2000/svg">
<rect x="0.520508" y="0.566406" width="90.7018" height="47.7378" rx="4.77378" fill="#BB0076"/>
<rect x="0.520508" y="53.0779" width="84.0185" height="4.77378" rx="2.38689" fill="#BB0076"/>
<rect x="0.520508" y="60.7161" width="56.3306" height="4.77378" rx="2.38689" fill="#BB0076"/>
<path d="M32.0273 15.5699C32.0273 13.6139 33.5794 12.0237 35.4883 12.0237H56.2543C58.1632 12.0237 59.7152 13.6139 59.7152 15.5699V33.3011C59.7152 35.2571 58.1632 36.8473 56.2543 36.8473H35.4883C33.5794 36.8473 32.0273 35.2571 32.0273 33.3011V15.5699ZM49.5378 21.4711C49.2944 21.1054 48.8943 20.8893 48.467 20.8893C48.0398 20.8893 47.6342 21.1054 47.3963 21.4711L42.6915 28.5414L41.2584 26.7073C41.0097 26.3915 40.6366 26.2086 40.2472 26.2086C39.8578 26.2086 39.4793 26.3915 39.2359 26.7073L35.7749 31.1401C35.4613 31.539 35.4018 32.0876 35.6181 32.5475C35.8344 33.0074 36.2887 33.3011 36.7862 33.3011H54.9564C55.4377 33.3011 55.8811 33.0296 56.1028 32.5918C56.3246 32.1541 56.2975 31.6277 56.0271 31.2232L49.5378 21.4711ZM38.0841 20.8893C38.7725 20.8893 39.4327 20.6091 39.9195 20.1103C40.4063 19.6115 40.6798 18.935 40.6798 18.2296C40.6798 17.5242 40.4063 16.8477 39.9195 16.3489C39.4327 15.8501 38.7725 15.5699 38.0841 15.5699C37.3956 15.5699 36.7354 15.8501 36.2486 16.3489C35.7618 16.8477 35.4883 17.5242 35.4883 18.2296C35.4883 18.935 35.7618 19.6115 36.2486 20.1103C36.7354 20.6091 37.3956 20.8893 38.0841 20.8893Z" fill="#FFC5F7"/>
</svg>
