<svg width="175" height="80" viewBox="0 0 175 80" fill="none" xmlns="http://www.w3.org/2000/svg">
<circle cx="40.1973" cy="40.3067" r="39.4122" fill="#B5EFFF"/>
<circle cx="135.583" cy="40.3067" r="39.4122" fill="#B5EFFF"/>
<path fill-rule="evenodd" clip-rule="evenodd" d="M61.8192 32.1476H18.8799V49.9692C18.8799 56.575 24.2349 61.9301 30.8407 61.9301H49.8584C56.4642 61.9301 61.8192 56.575 61.8192 49.9692V32.1476ZM33.9505 51.4212V40.3838C33.9505 38.543 35.9432 37.3912 37.5376 38.3121L47.1039 43.8309C48.6995 44.7519 48.6995 47.0544 47.1039 47.9753L37.5376 53.4941C35.9432 54.4138 33.9505 53.262 33.9505 51.4212Z" fill="#086AC5"/>
<path d="M52.6811 28.5594H61.58C60.4718 23.0999 55.6449 18.9907 49.8584 18.9907H47.1074L52.6811 28.5594Z" fill="#086AC5"/>
<path d="M42.945 18.9907H31.5583L37.132 28.5594H48.5308L42.945 18.9907Z" fill="#086AC5"/>
<path d="M27.6491 19.4213C23.346 20.6098 20.0157 24.1428 19.1191 28.5594H32.9817L27.6491 19.4213Z" fill="#086AC5"/>
<path d="M153.017 36.4168C153.373 36.4168 153.725 36.3953 154.072 36.3632V29.2184C148.528 28.8206 144.093 24.4847 143.514 18.9907H137.37C137.37 18.9907 137.306 48.823 137.306 48.9684C137.306 52.6464 134.058 55.5441 130.38 55.5441C126.702 55.5441 123.721 52.5638 123.721 48.8858C123.721 45.2078 126.702 42.2275 130.38 42.2275C130.655 42.2275 130.918 42.2764 131.186 42.3086V35.8797C130.918 35.8629 130.652 35.8384 130.38 35.8384C123.175 35.8384 117.334 41.6798 117.334 48.8842C117.334 56.0887 123.175 61.9301 130.38 61.9301C137.584 61.9301 143.426 56.0887 143.426 48.8842V31.2333C145.477 34.3529 149.004 36.4168 153.017 36.4168Z" fill="#086AC5"/>
</svg>
