<svg width="70" height="70" viewBox="0 0 70 70" fill="none" xmlns="http://www.w3.org/2000/svg">
<path fill-rule="evenodd" clip-rule="evenodd" d="M5.83398 5.83301V20.4163H11.6673V11.6663H20.4173V5.83301H5.83398ZM5.83398 49.583V64.1663H20.4173V58.333H11.6673V49.583H5.83398ZM49.584 58.333V64.1663H64.1673V49.583H58.334V58.333H49.584ZM58.334 11.6663V20.4163H64.1673V5.83301H49.584V11.6663H58.334Z" fill="#00916E"/>
<path d="M37.0778 27.1619C37.2048 27.2868 37.3744 27.3565 37.5508 27.3565C37.7273 27.3565 37.8968 27.2868 38.0239 27.1619L42.0865 22.6641C42.1502 22.5978 42.1859 22.5086 42.1859 22.4158C42.1859 22.3229 42.1502 22.2338 42.0865 22.1675L39.8326 19.8263C39.7003 19.6758 39.6128 19.4901 39.5803 19.2907C39.5478 19.0914 39.5716 18.8868 39.649 18.7007C39.7263 18.5147 39.854 18.3549 40.0171 18.2402C40.1802 18.1254 40.372 18.0604 40.57 18.0527H48.2221C48.4978 18.0564 48.7611 18.1697 48.956 18.3685C49.1509 18.5673 49.262 18.8358 49.2656 19.1169V26.9207C49.2581 27.1227 49.1943 27.3182 49.0818 27.4845C48.9693 27.6509 48.8127 27.7811 48.6302 27.86C48.4478 27.9389 48.2471 27.9631 48.0517 27.93C47.8562 27.8968 47.6741 27.8076 47.5265 27.6727L45.523 25.6721C45.4921 25.6363 45.4532 25.6086 45.4097 25.5914C45.3661 25.5741 45.3191 25.5677 45.2726 25.5728C45.2255 25.5734 45.179 25.5838 45.1359 25.6033C45.0929 25.6228 45.0542 25.6511 45.0221 25.6863L40.1804 30.9787C39.5783 31.6215 38.763 32.0124 37.8936 32.0754C37.0242 32.1383 36.1629 31.8688 35.4778 31.3193L31.4708 28.0416C31.3416 27.9269 31.1761 27.8636 31.0048 27.8636C30.8334 27.8636 30.6679 27.9269 30.5387 28.0416L22.5665 36.2286C22.1709 36.6045 21.6476 36.8092 21.107 36.7995C20.5663 36.7897 20.0504 36.5664 19.6681 36.1764C19.2857 35.7865 19.0667 35.2604 19.0571 34.709C19.0476 34.1576 19.2483 33.624 19.6169 33.2205L28.4795 24.1823C29.0856 23.5657 29.8934 23.1988 30.7482 23.1517C31.603 23.1045 32.4449 23.3806 33.1126 23.9269L37.0778 27.1619Z" fill="#00916E"/>
<path d="M35.4046 49.9244C35.4046 49.36 35.6245 48.8186 36.0159 48.4195C36.4073 48.0203 36.9381 47.7961 37.4916 47.7961H47.2307C47.7842 47.7961 48.315 48.0203 48.7064 48.4195C49.0978 48.8186 49.3177 49.36 49.3177 49.9244C49.3177 50.4889 49.0978 51.0302 48.7064 51.4294C48.315 51.8285 47.7842 52.0527 47.2307 52.0527H37.4916C36.9381 52.0527 36.4073 51.8285 36.0159 51.4294C35.6245 51.0302 35.4046 50.4889 35.4046 49.9244Z" fill="#00916E"/>
<path d="M20.1003 49.9244C20.1003 49.36 20.3202 48.8186 20.7115 48.4195C21.1029 48.0203 21.6337 47.7961 22.1872 47.7961H31.9264C32.4799 47.7961 33.0107 48.0203 33.4021 48.4195C33.7935 48.8186 34.0133 49.36 34.0133 49.9244C34.0133 50.4889 33.7935 51.0302 33.4021 51.4294C33.0107 51.8285 32.4799 52.0527 31.9264 52.0527H22.1872C21.6337 52.0527 21.1029 51.8285 20.7115 51.4294C20.3202 51.0302 20.1003 50.4889 20.1003 49.9244Z" fill="#00916E"/>
<path d="M18.709 43.5395C18.709 42.975 18.9289 42.4337 19.3202 42.0345C19.7116 41.6354 20.2424 41.4111 20.7959 41.4111H30.5351C31.0886 41.4111 31.6194 41.6354 32.0108 42.0345C32.4022 42.4337 32.622 42.975 32.622 43.5395C32.622 44.1039 32.4022 44.6453 32.0108 45.0444C31.6194 45.4435 31.0886 45.6678 30.5351 45.6678H20.7959C20.2424 45.6678 19.7116 45.4435 19.3202 45.0444C18.9289 44.6453 18.709 44.1039 18.709 43.5395Z" fill="#00916E"/>
<path d="M38.8829 45.6678C38.3294 45.6678 37.7986 45.4435 37.4072 45.0444C37.0158 44.6453 36.7959 44.1039 36.7959 43.5395C36.7959 42.975 37.0158 42.4337 37.4072 42.0345C37.7986 41.6354 38.3294 41.4111 38.8829 41.4111H48.622C49.1755 41.4111 49.7064 41.6354 50.0977 42.0345C50.4891 42.4337 50.709 42.975 50.709 43.5395C50.709 44.1039 50.4891 44.6453 50.0977 45.0444C49.7064 45.4435 49.1755 45.6678 48.622 45.6678H38.8829Z" fill="#00916E"/>
<path d="M37.4916 35.0262H47.2307C47.7842 35.0262 48.315 35.2504 48.7064 35.6496C49.0978 36.0487 49.3177 36.59 49.3177 37.1545C49.3177 37.719 49.0978 38.2603 48.7064 38.6595C48.315 39.0586 47.7842 39.2828 47.2307 39.2828H37.4916C36.9381 39.2828 36.4073 39.0586 36.0159 38.6595C35.6245 38.2603 35.4046 37.719 35.4046 37.1545C35.4046 36.59 35.6245 36.0487 36.0159 35.6496C36.4073 35.2504 36.9381 35.0262 37.4916 35.0262Z" fill="#00916E"/>
</svg>
