<svg width="70" height="70" viewBox="0 0 70 70" fill="none" xmlns="http://www.w3.org/2000/svg">
<path fill-rule="evenodd" clip-rule="evenodd" d="M5.83325 5.83325V20.4166H11.6666V11.6666H20.4166V5.83325H5.83325ZM5.83325 49.5832V64.1666H20.4166V58.3332H11.6666V49.5832H5.83325ZM49.5832 58.3332V64.1666H64.1666V49.5832H58.3332V58.3332H49.5832ZM58.3332 11.6666V20.4166H64.1666V5.83325H49.5832V11.6666H58.3332ZM32.0833 17.5001C32.083 25.5539 25.5543 32.0827 17.5005 32.083V37.9163C25.5543 37.9166 32.0833 44.4455 32.0833 52.4996H37.9166C37.9166 44.4455 44.4458 37.9163 52.4999 37.9163V32.083C44.4458 32.083 37.9166 25.554 37.9166 17.5001H32.0833Z" fill="#086AC5"/>
</svg>
