<svg width="70" height="70" viewBox="0 0 70 70" fill="none" xmlns="http://www.w3.org/2000/svg">
<path fill-rule="evenodd" clip-rule="evenodd" d="M6 5.83301V20.4163H11.8333V11.6663H20.5833V5.83301H6ZM6 49.583V64.1663H20.5833V58.333H11.8333V49.583H6ZM49.75 58.333V64.1663H64.3333V49.583H58.5V58.333H49.75ZM58.5 11.6663V20.4163H64.3333V5.83301H49.75V11.6663H58.5Z" fill="#00916E"/>
<g clip-path="url(#clip0_652_899)">
<path d="M50.041 31.4583H47.406C47.1393 30.5542 46.7784 29.6805 46.3293 28.8517L48.1852 26.9817C48.3851 26.7865 48.5435 26.5527 48.6506 26.2947C48.7577 26.0366 48.8114 25.7594 48.8085 25.48C48.8106 25.2007 48.7565 24.9238 48.6495 24.6658C48.5424 24.4078 48.3845 24.174 48.1852 23.9783L46.1877 21.9808C45.9914 21.7821 45.7575 21.6243 45.4997 21.5166C45.242 21.4089 44.9654 21.3534 44.686 21.3534C44.4066 21.3534 44.1301 21.4089 43.8723 21.5166C43.6145 21.6243 43.3807 21.7821 43.1843 21.9808L41.3143 23.8508C40.4886 23.3918 39.6143 23.0259 38.7077 22.76V20.125C38.7077 19.5614 38.4838 19.0209 38.0853 18.6224C37.6868 18.2239 37.1463 18 36.5827 18H33.7493C33.1858 18 32.6453 18.2239 32.2467 18.6224C31.8482 19.0209 31.6243 19.5614 31.6243 20.125V22.76C30.7177 23.0259 29.8435 23.3918 29.0177 23.8508L27.1477 21.9808C26.9513 21.7821 26.7175 21.6243 26.4597 21.5166C26.202 21.4089 25.9254 21.3534 25.646 21.3534C25.3666 21.3534 25.0901 21.4089 24.8323 21.5166C24.5745 21.6243 24.3407 21.7821 24.1443 21.9808L22.1468 23.9783C21.9476 24.174 21.7897 24.4078 21.6826 24.6658C21.5755 24.9238 21.5214 25.2007 21.5235 25.48C21.5189 25.7597 21.5719 26.0373 21.6791 26.2956C21.7863 26.5539 21.9456 26.7875 22.1468 26.9817L24.0027 28.8517C23.5536 29.6805 23.1927 30.5542 22.926 31.4583H20.291C19.7274 31.4583 19.1869 31.6822 18.7884 32.0807C18.3899 32.4792 18.166 33.0197 18.166 33.5833V36.4167C18.166 36.9803 18.3899 37.5208 18.7884 37.9193C19.1869 38.3178 19.7274 38.5417 20.291 38.5417H22.926C23.1902 39.4467 23.5512 40.3207 24.0027 41.1483L22.1468 43.0183C21.7489 43.4168 21.5254 43.9569 21.5254 44.52C21.5254 45.0831 21.7489 45.6232 22.1468 46.0217L24.1443 48.0192C24.5481 48.407 25.0862 48.6236 25.646 48.6236C26.2059 48.6236 26.744 48.407 27.1477 48.0192L29.0177 46.1633C29.8454 46.6148 30.7193 46.9758 31.6243 47.24V49.875C31.6243 50.4386 31.8482 50.9791 32.2467 51.3776C32.6453 51.7761 33.1858 52 33.7493 52H36.5827C37.1463 52 37.6868 51.7761 38.0853 51.3776C38.4838 50.9791 38.7077 50.4386 38.7077 49.875V47.24C39.6127 46.9758 40.4867 46.6148 41.3143 46.1633L43.1843 48.0192C43.3807 48.2179 43.6145 48.3757 43.8723 48.4834C44.1301 48.5911 44.4066 48.6466 44.686 48.6466C44.9654 48.6466 45.242 48.5911 45.4997 48.4834C45.7575 48.3757 45.9914 48.2179 46.1877 48.0192L48.1852 46.0217C48.5831 45.6232 48.8066 45.0831 48.8066 44.52C48.8066 43.9569 48.5831 43.4168 48.1852 43.0183L46.3293 41.1483C46.7809 40.3207 47.1418 39.4467 47.406 38.5417H50.041C50.6046 38.5417 51.1451 38.3178 51.5436 37.9193C51.9421 37.5208 52.166 36.9803 52.166 36.4167V33.5833C52.166 33.0197 51.9421 32.4792 51.5436 32.0807C51.1451 31.6822 50.6046 31.4583 50.041 31.4583ZM35.166 42.0833C33.7651 42.0833 32.3956 41.6679 31.2307 40.8896C30.0659 40.1112 29.158 39.005 28.6219 37.7107C28.0857 36.4164 27.9455 34.9921 28.2188 33.6181C28.4921 32.2441 29.1667 30.9819 30.1573 29.9913C31.148 29.0007 32.4101 28.3261 33.7841 28.0528C35.1582 27.7795 36.5824 27.9197 37.8767 28.4559C39.171 28.992 40.2773 29.8999 41.0556 31.0647C41.8339 32.2296 42.2493 33.599 42.2493 35C42.2493 36.8786 41.5031 38.6803 40.1747 40.0087C38.8463 41.3371 37.0446 42.0833 35.166 42.0833Z" fill="#00916E"/>
</g>
<defs>
<clipPath id="clip0_652_899">
<rect width="34" height="34" fill="white" transform="translate(18.166 18)"/>
</clipPath>
</defs>
</svg>
