<svg width="70" height="70" viewBox="0 0 70 70" fill="none" xmlns="http://www.w3.org/2000/svg">
<path fill-rule="evenodd" clip-rule="evenodd" d="M5.83337 5.83325V20.4166H11.6667V11.6666H20.4167V5.83325H5.83337ZM5.83337 49.5833V64.1666H20.4167V58.3333H11.6667V49.5833H5.83337ZM49.5834 58.3333V64.1666H64.1667V49.5833H58.3334V58.3333H49.5834ZM58.3334 11.6666V20.4166H64.1667V5.83325H49.5834V11.6666H58.3334Z" fill="#BB0076"/>
<path d="M37.0772 27.1622C37.2042 27.287 37.3738 27.3568 37.5502 27.3568C37.7267 27.3568 37.8962 27.287 38.0233 27.1622L42.0859 22.6643C42.1496 22.598 42.1853 22.5089 42.1853 22.416C42.1853 22.3232 42.1496 22.234 42.0859 22.1677L39.832 19.8266C39.6997 19.6761 39.6122 19.4903 39.5797 19.291C39.5472 19.0917 39.571 18.887 39.6484 18.701C39.7257 18.5149 39.8534 18.3552 40.0165 18.2404C40.1796 18.1257 40.3714 18.0607 40.5694 18.053H48.2215C48.4972 18.0567 48.7605 18.17 48.9554 18.3687C49.1503 18.5675 49.2614 18.836 49.265 19.1171V26.921C49.2575 27.1229 49.1937 27.3185 49.0812 27.4848C48.9687 27.6511 48.812 27.7813 48.6296 27.8602C48.4472 27.9391 48.2465 27.9634 48.0511 27.9302C47.8556 27.8971 47.6734 27.8078 47.5259 27.673L45.5224 25.6724C45.4915 25.6366 45.4526 25.6089 45.409 25.5916C45.3655 25.5743 45.3185 25.5679 45.272 25.573C45.2249 25.5737 45.1784 25.5841 45.1353 25.6036C45.0923 25.6231 45.0536 25.6513 45.0215 25.6865L40.1798 30.979C39.5777 31.6217 38.7624 32.0127 37.893 32.0756C37.0236 32.1386 36.1623 31.869 35.4772 31.3195L31.4702 28.0419C31.341 27.9271 31.1755 27.8639 31.0041 27.8639C30.8328 27.8639 30.6673 27.9271 30.5381 28.0419L22.5659 36.2288C22.1703 36.6048 21.647 36.8094 21.1063 36.7997C20.5657 36.79 20.0498 36.5666 19.6675 36.1767C19.2851 35.7867 19.0661 35.2606 19.0565 34.7093C19.047 34.1579 19.2477 33.6243 19.6163 33.2208L28.4789 24.1825C29.085 23.566 29.8928 23.199 30.7476 23.1519C31.6024 23.1048 32.4442 23.3808 33.112 23.9271L37.0772 27.1622Z" fill="#BB0076"/>
<path d="M35.404 49.9247C35.404 49.3602 35.6239 48.8189 36.0153 48.4197C36.4067 48.0206 36.9375 47.7963 37.491 47.7963H47.2301C47.7836 47.7963 48.3144 48.0206 48.7058 48.4197C49.0972 48.8189 49.3171 49.3602 49.3171 49.9247C49.3171 50.4891 49.0972 51.0305 48.7058 51.4296C48.3144 51.8287 47.7836 52.053 47.2301 52.053H37.491C36.9375 52.053 36.4067 51.8287 36.0153 51.4296C35.6239 51.0305 35.404 50.4891 35.404 49.9247Z" fill="#BB0076"/>
<path d="M20.0997 49.9247C20.0997 49.3602 20.3196 48.8189 20.7109 48.4197C21.1023 48.0206 21.6331 47.7963 22.1866 47.7963H31.9258C32.4793 47.7963 33.0101 48.0206 33.4015 48.4197C33.7928 48.8189 34.0127 49.3602 34.0127 49.9247C34.0127 50.4891 33.7928 51.0305 33.4015 51.4296C33.0101 51.8287 32.4793 52.053 31.9258 52.053H22.1866C21.6331 52.053 21.1023 51.8287 20.7109 51.4296C20.3196 51.0305 20.0997 50.4891 20.0997 49.9247Z" fill="#BB0076"/>
<path d="M18.7084 43.5397C18.7084 42.9752 18.9283 42.4339 19.3196 42.0348C19.711 41.6356 20.2418 41.4114 20.7953 41.4114H30.5345C31.088 41.4114 31.6188 41.6356 32.0102 42.0348C32.4015 42.4339 32.6214 42.9752 32.6214 43.5397C32.6214 44.1042 32.4015 44.6455 32.0102 45.0447C31.6188 45.4438 31.088 45.668 30.5345 45.668H20.7953C20.2418 45.668 19.711 45.4438 19.3196 45.0447C18.9283 44.6455 18.7084 44.1042 18.7084 43.5397Z" fill="#BB0076"/>
<path d="M38.8823 45.668C38.3288 45.668 37.798 45.4438 37.4066 45.0447C37.0152 44.6455 36.7953 44.1042 36.7953 43.5397C36.7953 42.9752 37.0152 42.4339 37.4066 42.0348C37.798 41.6356 38.3288 41.4114 38.8823 41.4114H48.6214C49.1749 41.4114 49.7057 41.6356 50.0971 42.0348C50.4885 42.4339 50.7084 42.9752 50.7084 43.5397C50.7084 44.1042 50.4885 44.6455 50.0971 45.0447C49.7057 45.4438 49.1749 45.668 48.6214 45.668H38.8823Z" fill="#BB0076"/>
<path d="M37.491 35.0264H47.2301C47.7836 35.0264 48.3144 35.2507 48.7058 35.6498C49.0972 36.0489 49.3171 36.5903 49.3171 37.1548C49.3171 37.7192 49.0972 38.2606 48.7058 38.6597C48.3144 39.0588 47.7836 39.2831 47.2301 39.2831H37.491C36.9375 39.2831 36.4067 39.0588 36.0153 38.6597C35.6239 38.2606 35.404 37.7192 35.404 37.1548C35.404 36.5903 35.6239 36.0489 36.0153 35.6498C36.4067 35.2507 36.9375 35.0264 37.491 35.0264Z" fill="#BB0076"/>
</svg>
