<svg width="70" height="70" viewBox="0 0 70 70" fill="none" xmlns="http://www.w3.org/2000/svg">
<path fill-rule="evenodd" clip-rule="evenodd" d="M6 5.83325V20.4166H11.8333V11.6666H20.5833V5.83325H6ZM6 49.5833V64.1666H20.5833V58.3333H11.8333V49.5833H6ZM49.75 58.3333V64.1666H64.3333V49.5833H58.5V58.3333H49.75ZM58.5 11.6666V20.4166H64.3333V5.83325H49.75V11.6666H58.5Z" fill="#D1AA00"/>
<g clip-path="url(#clip0_545_2416)">
<path d="M50.0416 31.4583H47.4066C47.1399 30.5542 46.7791 29.6805 46.33 28.8517L48.1858 26.9817C48.3857 26.7865 48.5441 26.5527 48.6512 26.2947C48.7583 26.0366 48.8121 25.7594 48.8091 25.48C48.8112 25.2007 48.7571 24.9238 48.6501 24.6658C48.543 24.4078 48.3851 24.174 48.1858 23.9783L46.1883 21.9808C45.992 21.7821 45.7581 21.6243 45.5004 21.5166C45.2426 21.4089 44.966 21.3534 44.6866 21.3534C44.4073 21.3534 44.1307 21.4089 43.8729 21.5166C43.6151 21.6243 43.3813 21.7821 43.185 21.9808L41.315 23.8508C40.4892 23.3918 39.6149 23.0259 38.7083 22.76V20.125C38.7083 19.5614 38.4844 19.0209 38.0859 18.6224C37.6874 18.2239 37.1469 18 36.5833 18H33.75C33.1864 18 32.6459 18.2239 32.2474 18.6224C31.8488 19.0209 31.625 19.5614 31.625 20.125V22.76C30.7183 23.0259 29.8441 23.3918 29.0183 23.8508L27.1483 21.9808C26.952 21.7821 26.7181 21.6243 26.4604 21.5166C26.2026 21.4089 25.926 21.3534 25.6466 21.3534C25.3673 21.3534 25.0907 21.4089 24.8329 21.5166C24.5751 21.6243 24.3413 21.7821 24.145 21.9808L22.1475 23.9783C21.9482 24.174 21.7903 24.4078 21.6832 24.6658C21.5761 24.9238 21.522 25.2007 21.5241 25.48C21.5195 25.7597 21.5725 26.0373 21.6797 26.2956C21.787 26.5539 21.9462 26.7875 22.1475 26.9817L24.0033 28.8517C23.5542 29.6805 23.1933 30.5542 22.9266 31.4583H20.2916C19.728 31.4583 19.1875 31.6822 18.789 32.0807C18.3905 32.4792 18.1666 33.0197 18.1666 33.5833V36.4167C18.1666 36.9803 18.3905 37.5208 18.789 37.9193C19.1875 38.3178 19.728 38.5417 20.2916 38.5417H22.9266C23.1908 39.4467 23.5518 40.3207 24.0033 41.1483L22.1475 43.0183C21.7495 43.4168 21.526 43.9569 21.526 44.52C21.526 45.0831 21.7495 45.6232 22.1475 46.0217L24.145 48.0192C24.5487 48.407 25.0868 48.6236 25.6466 48.6236C26.2065 48.6236 26.7446 48.407 27.1483 48.0192L29.0183 46.1633C29.846 46.6148 30.7199 46.9758 31.625 47.24V49.875C31.625 50.4386 31.8488 50.9791 32.2474 51.3776C32.6459 51.7761 33.1864 52 33.75 52H36.5833C37.1469 52 37.6874 51.7761 38.0859 51.3776C38.4844 50.9791 38.7083 50.4386 38.7083 49.875V47.24C39.6133 46.9758 40.4873 46.6148 41.315 46.1633L43.185 48.0192C43.3813 48.2179 43.6151 48.3757 43.8729 48.4834C44.1307 48.5911 44.4073 48.6466 44.6866 48.6466C44.966 48.6466 45.2426 48.5911 45.5004 48.4834C45.7581 48.3757 45.992 48.2179 46.1883 48.0192L48.1858 46.0217C48.5837 45.6232 48.8073 45.0831 48.8073 44.52C48.8073 43.9569 48.5837 43.4168 48.1858 43.0183L46.33 41.1483C46.7815 40.3207 47.1425 39.4467 47.4066 38.5417H50.0416C50.6052 38.5417 51.1457 38.3178 51.5442 37.9193C51.9427 37.5208 52.1666 36.9803 52.1666 36.4167V33.5833C52.1666 33.0197 51.9427 32.4792 51.5442 32.0807C51.1457 31.6822 50.6052 31.4583 50.0416 31.4583ZM35.1666 42.0833C33.7657 42.0833 32.3962 41.6679 31.2313 40.8896C30.0665 40.1112 29.1586 39.005 28.6225 37.7107C28.0864 36.4164 27.9461 34.9921 28.2194 33.6181C28.4927 32.2441 29.1673 30.9819 30.158 29.9913C31.1486 29.0007 32.4107 28.3261 33.7847 28.0528C35.1588 27.7795 36.583 27.9197 37.8773 28.4559C39.1716 28.992 40.2779 29.8999 41.0562 31.0647C41.8345 32.2296 42.25 33.599 42.25 35C42.25 36.8786 41.5037 38.6803 40.1753 40.0087C38.8469 41.3371 37.0452 42.0833 35.1666 42.0833Z" fill="#D1AA00"/>
</g>
<defs>
<clipPath id="clip0_545_2416">
<rect width="34" height="34" fill="white" transform="translate(18.1666 18)"/>
</clipPath>
</defs>
</svg>
