<svg width="70" height="70" viewBox="0 0 70 70" fill="none" xmlns="http://www.w3.org/2000/svg">
<path fill-rule="evenodd" clip-rule="evenodd" d="M5.83398 5.8335V20.4168H11.6673V11.6668H20.4173V5.8335H5.83398ZM5.83398 49.5835V64.1668H20.4173V58.3335H11.6673V49.5835H5.83398ZM49.584 58.3335V64.1668H64.1673V49.5835H58.334V58.3335H49.584ZM58.334 11.6668V20.4168H64.1673V5.8335H49.584V11.6668H58.334ZM32.084 17.5003C32.0837 25.5541 25.555 32.0829 17.5012 32.0832V37.9165C25.5551 37.9168 32.084 44.4458 32.084 52.4999H37.9173C37.9173 44.4458 44.4466 37.9165 52.5006 37.9165V32.0832C44.4466 32.0832 37.9173 25.5543 37.9173 17.5003H32.084Z" fill="#00916E"/>
</svg>
