<svg width="67" height="66" viewBox="0 0 67 66" fill="none" xmlns="http://www.w3.org/2000/svg">
<path d="M7.23323 46.3469L24.2249 29.165L27.8641 32.8043C29.0561 33.9963 30.6285 34.6049 32.2008 34.6049C33.7732 34.6049 35.3329 34.0089 36.5375 32.8043L51.7159 17.6259L57.9673 23.8773C58.3604 24.2704 59.0197 24.2704 59.4128 23.8773C59.6411 23.6491 59.7298 23.3574 59.7045 23.0658V1.96571C59.7045 1.39509 59.248 0.938599 58.6774 0.938599C58.652 0.938599 58.614 0.938599 58.5886 0.938599H37.4885C36.9179 0.938599 36.4614 1.39509 36.4614 1.96571C36.4614 2.24467 36.5755 2.51096 36.7657 2.68849L43.0425 8.96526L32.2008 19.8069L28.5616 16.1677C27.3696 14.9757 25.7972 14.3671 24.2249 14.3671C22.6525 14.3671 21.0928 14.9631 19.8882 16.1677L5.73695 30.319C5.53406 30.5218 5.43262 30.7754 5.43262 31.0417V45.6875C5.43262 46.2581 5.88911 46.7146 6.45972 46.7146C6.77673 46.7146 7.0557 46.5751 7.23323 46.3596V46.3469Z" fill="#0ABF8F"/>
<path d="M54.7591 25.8302H65.3218C65.8797 25.8302 66.3235 26.274 66.3235 26.8319V64.8603C66.3235 65.4182 65.8797 65.862 65.3218 65.862H54.7591C54.2011 65.862 53.7573 65.4182 53.7573 64.8603V26.8319C53.7573 26.274 54.2011 25.8302 54.7591 25.8302Z" fill="#007C62"/>
<path d="M37.1463 39.563H47.709C48.2669 39.563 48.7108 40.0068 48.7108 40.5647V64.8603C48.7108 65.4182 48.2669 65.862 47.709 65.862H37.1463C36.5883 65.862 36.1445 65.4182 36.1445 64.8603V40.5647C36.1445 40.0068 36.5883 39.563 37.1463 39.563Z" fill="#007C62"/>
<path d="M19.533 44.838H30.0957C30.6537 44.838 31.0975 45.2818 31.0975 45.8398V64.8476C31.0975 65.4055 30.6537 65.8493 30.0957 65.8493H19.533C18.9751 65.8493 18.5312 65.4055 18.5312 64.8476V45.8398C18.5312 45.2818 18.9751 44.838 19.533 44.838Z" fill="#007C62"/>
<path d="M1.9329 52.9408H12.4956C13.0536 52.9408 13.4974 53.3846 13.4974 53.9425V64.8603C13.4974 65.4183 13.0536 65.8621 12.4956 65.8621H1.9329C1.37496 65.8621 0.931152 65.4183 0.931152 64.8603V53.9425C0.931152 53.3846 1.37496 52.9408 1.9329 52.9408Z" fill="#007C62"/>
</svg>
