<svg width="96" height="66" viewBox="0 0 96 66" fill="none" xmlns="http://www.w3.org/2000/svg">
<path fill-rule="evenodd" clip-rule="evenodd" d="M48.3694 0.938599C48.2731 0.938697 48.1777 0.944298 48.0814 0.944931C47.5492 0.948415 47.0179 0.955067 46.4885 0.97428C46.3338 0.979875 46.1805 0.992499 46.0261 0.999435C45.551 1.0208 45.076 1.04303 44.6034 1.07699C44.4018 1.09145 44.2013 1.11264 44.0002 1.12939C43.5953 1.16313 43.1905 1.19758 42.7876 1.24047C42.5312 1.26774 42.2761 1.29966 42.0205 1.33059C41.6562 1.37475 41.2923 1.41943 40.9298 1.47102C40.6646 1.50873 40.4017 1.55303 40.1375 1.59468C39.805 1.64717 39.4722 1.69947 39.1414 1.75816C38.8554 1.80888 38.5707 1.86423 38.2861 1.91955C37.9689 1.98121 37.6516 2.04294 37.3362 2.11028C37.058 2.16965 36.7807 2.23307 36.5039 2.29681C36.1737 2.37287 35.8443 2.45141 35.5162 2.53365C35.2663 2.59627 35.0167 2.66029 34.768 2.72648C34.4001 2.82443 34.034 2.92679 33.6689 3.03248C33.4575 3.09367 33.2468 3.15735 33.0364 3.22112C32.6599 3.3352 32.2853 3.45307 31.912 3.57533C31.7113 3.64103 31.5107 3.70638 31.311 3.77444C30.9162 3.90898 30.5229 4.05 30.132 4.19362C29.9493 4.2607 29.7653 4.32578 29.5835 4.39483C29.1361 4.56481 28.6931 4.74332 28.2511 4.9251C28.1534 4.96526 28.0543 5.00175 27.9569 5.04247C27.4632 5.24895 26.9745 5.46488 26.4879 5.68592C26.414 5.71948 26.3389 5.75054 26.2651 5.78442C25.7173 6.03634 25.1747 6.29816 24.6364 6.5683C24.6345 6.56928 24.6322 6.56932 24.6301 6.57041C23.5193 7.12796 22.4273 7.72298 21.36 8.35614C20.8264 8.67272 20.2996 8.99995 19.7776 9.33493C19.267 9.66257 18.7613 9.99814 18.2623 10.3431C18.2008 10.3856 18.1408 10.4302 18.0795 10.473C17.6465 10.7751 17.2172 11.0824 16.7933 11.3973C16.6975 11.4685 16.6029 11.5414 16.5075 11.6132C16.1102 11.9126 15.7175 12.2165 15.3286 12.527C15.2468 12.5922 15.1661 12.6583 15.0848 12.724C14.6948 13.0393 14.3079 13.3597 13.9268 13.6861C13.8195 13.7779 13.7139 13.8721 13.6074 13.9648C13.2748 14.2542 12.9451 14.5473 12.6196 14.8451C12.4721 14.9802 12.3265 15.1171 12.1804 15.2538C11.8731 15.5415 11.5689 15.8326 11.2683 16.1278C11.1479 16.2461 11.0283 16.3647 10.909 16.4841C10.5756 16.8179 10.2459 17.1556 9.92123 17.4986C9.83862 17.5858 9.75528 17.6727 9.67324 17.7605C9.32471 18.1338 8.98154 18.5127 8.64348 18.8965C8.57529 18.9739 8.50738 19.0514 8.43962 19.1292C8.07996 19.5424 7.72771 19.9617 7.38044 20.3867C7.34709 20.4276 7.31279 20.4674 7.27956 20.5083C6.89434 20.9827 6.5162 21.4636 6.14681 21.9524C5.76839 22.4531 5.39641 22.9607 5.03509 23.4761C3.92882 25.0543 2.90743 26.704 1.97101 28.4141C1.50629 29.2292 0.874439 31.2226 0.882399 33.3018C0.890833 35.5014 1.62409 37.7462 2.13913 38.6359C10.7951 54.2424 26.8482 64.4991 44.7925 65.7362C45.3906 65.7774 45.9914 65.8074 46.5935 65.8284C47.1956 65.8495 47.7993 65.8613 48.4051 65.862C48.9988 65.861 49.5906 65.8491 50.1809 65.8284C50.783 65.8074 51.3838 65.7774 51.9819 65.7362C69.9262 64.4991 85.9793 54.2424 94.6353 38.6359C95.1503 37.7462 95.8836 35.5014 95.892 33.3018C95.8999 31.2226 95.2681 29.2292 94.8034 28.4141C93.867 26.704 92.8456 25.0543 91.7393 23.4761C91.3843 22.9697 91.0201 22.4718 90.6486 21.9796C90.6419 21.9708 90.6363 21.9612 90.6297 21.9524C90.6095 21.9257 90.5889 21.8994 90.5687 21.8727C90.2189 21.4117 89.8608 20.9565 89.4969 20.5083C89.4872 20.4963 89.4772 20.4846 89.4675 20.4727C89.4437 20.4434 89.4178 20.416 89.3939 20.3867C89.0467 19.9617 88.6944 19.5424 88.3347 19.1292C88.267 19.0514 88.1991 18.9739 88.1309 18.8965C87.7873 18.5064 87.4388 18.1209 87.0843 17.7417C87.0204 17.6733 86.9552 17.6064 86.891 17.5384C86.5428 17.1698 86.1899 16.8064 85.8318 16.4485C85.7321 16.3488 85.6318 16.2497 85.5313 16.1509C85.2228 15.8475 84.9096 15.5493 84.594 15.2538C84.4479 15.1171 84.3023 14.9802 84.1547 14.8451C83.8293 14.5473 83.4995 14.2542 83.167 13.9648C83.0604 13.8721 82.9548 13.7779 82.8476 13.6861C82.4665 13.3597 82.0796 13.0393 81.6896 12.724C81.6083 12.6583 81.5275 12.5922 81.4458 12.527C81.0569 12.2165 80.6642 11.9126 80.2669 11.6132C80.1715 11.5414 80.0769 11.4685 79.981 11.3973C79.5572 11.0824 79.1279 10.7751 78.6949 10.473C78.6336 10.4303 78.5735 10.3856 78.512 10.3431C78.013 9.99814 77.5074 9.66257 76.9968 9.33493C76.4748 8.99995 75.948 8.67272 75.4143 8.35614C74.347 7.72298 73.2551 7.12796 72.1443 6.57041C72.1424 6.56943 72.1401 6.56939 72.138 6.5683C71.5996 6.29816 71.0571 6.03634 70.5093 5.78442C70.4355 5.75053 70.3604 5.71949 70.2865 5.68592C69.7999 5.46488 69.3112 5.24895 68.8175 5.04247C68.7201 5.00173 68.621 4.96526 68.5233 4.9251C68.0813 4.74332 67.6383 4.56481 67.1909 4.39483C67.0091 4.32578 66.825 4.26071 66.6424 4.19362C66.2514 4.05 65.8582 3.90898 65.4634 3.77444C65.2637 3.70638 65.0631 3.64104 64.8624 3.57533C64.4891 3.45307 64.1145 3.3352 63.738 3.22112C63.5275 3.15734 63.3169 3.09367 63.1055 3.03248C62.7403 2.92679 62.3743 2.82443 62.0063 2.72648C61.7577 2.6603 61.5081 2.59628 61.2582 2.53365C60.9273 2.4507 60.5951 2.37138 60.262 2.29472C59.9934 2.2329 59.725 2.17216 59.455 2.11447C59.1242 2.04373 58.7917 1.97775 58.4589 1.91326C58.1896 1.86108 57.9203 1.80832 57.6498 1.76026C57.3071 1.69936 56.9625 1.64473 56.6179 1.59049C56.3611 1.55008 56.1045 1.50768 55.8467 1.47102C55.4835 1.41933 55.1189 1.37484 54.7538 1.33059C54.4983 1.29964 54.2432 1.26774 53.9868 1.24047C53.5839 1.19758 53.1791 1.16313 52.7742 1.12939C52.5731 1.11266 52.3726 1.09146 52.171 1.07699C51.6984 1.04304 51.2234 1.02082 50.7483 0.999435C50.5938 0.992468 50.4406 0.979875 50.2859 0.97428C49.7565 0.955078 49.2252 0.948352 48.6929 0.944931C48.5849 0.944252 48.4775 0.938704 48.3694 0.938599ZM48.7476 12.8078C57.4613 12.879 65.4874 18.5424 68.1388 27.2948C68.14 27.2989 68.1418 27.3033 68.143 27.3074C68.144 27.3109 68.144 27.3145 68.1451 27.318C71.4061 38.0909 65.2918 49.4622 54.4849 52.7184C43.6767 55.9744 32.2671 49.8809 29.0035 39.1075C29.0024 39.104 29.0025 39.1004 29.0014 39.097C29.0001 39.0928 28.9983 39.0885 28.9971 39.0844C25.7358 28.3103 31.8551 16.9367 42.6636 13.6818C44.69 13.0717 46.7368 12.7914 48.7476 12.8078ZM48.5711 17.4985C44.3943 17.4987 40.3885 19.1531 37.4351 22.0979C34.4816 25.0426 32.8222 29.0366 32.822 33.2011C32.8222 37.3657 34.4816 41.3596 37.4351 44.3044C40.3885 47.2492 44.3943 48.9036 48.5711 48.9038C52.748 48.9036 56.7537 47.2492 59.7072 44.3044C62.6607 41.3596 64.32 37.3657 64.3202 33.2011C64.32 29.0366 62.6607 25.0426 59.7072 22.0979C56.7537 19.1531 52.748 17.4987 48.5711 17.4985Z" fill="#F85E0B"/>
</svg>
