<svg width="82" height="79" viewBox="0 0 82 79" fill="none" xmlns="http://www.w3.org/2000/svg">
<path d="M78.8792 32.8257C76.6307 30.1721 73.4844 28.5593 70.0206 28.2732C66.5486 27.9871 63.18 29.0677 60.5264 31.3162C57.8728 33.5646 56.2599 36.7188 55.9738 40.1828C55.6879 43.6548 56.7683 47.0236 59.0168 49.6772C61.5909 52.7042 65.2616 54.2614 68.956 54.2614C71.9355 54.2614 74.9306 53.2524 77.3776 51.1787C80.0312 48.9303 81.6441 45.7761 81.93 42.312C82.2161 38.848 81.1278 35.4793 78.8792 32.8257ZM69.5916 45.2041C69.4883 46.5071 68.8844 47.6751 67.8992 48.5172C67.7564 48.6443 67.5736 48.7079 67.3829 48.7079C67.2637 48.7079 67.1365 48.676 67.0254 48.6205C64.2287 47.1826 62.3298 44.942 61.3684 41.9468C61.2652 41.645 61.3605 41.3112 61.6068 41.1046C62.5999 40.2625 63.8553 39.8652 65.1502 39.9685C66.4453 40.0718 67.6212 40.6755 68.4553 41.6609C69.2975 42.6536 69.7028 43.909 69.5916 45.2041ZM74.0248 41.1442C73.4447 41.6367 72.7139 41.9069 71.9591 41.9069C71.8716 41.9069 71.7844 41.899 71.6889 41.891C70.8389 41.8193 70.0603 41.4223 69.5041 40.7708C68.3679 39.428 68.5348 37.4021 69.8854 36.2579C70.5369 35.7019 71.3633 35.4396 72.2133 35.511C73.0714 35.5826 73.842 35.9797 74.3902 36.6233C75.5343 37.9741 75.3754 40 74.0248 41.1442Z" fill="#FF00B3"/>
<path d="M55.4734 5.23236C53.225 2.57877 50.0708 0.965882 46.6068 0.679965C43.1427 0.385997 39.7662 1.4745 37.1205 3.72295C31.6385 8.37076 30.9631 16.6098 35.6111 22.0838C38.1852 25.1108 41.8558 26.6759 45.5503 26.6759C47.0359 26.6759 48.5297 26.4217 49.9597 25.9052C51.3897 25.3968 52.7404 24.6182 53.964 23.5853C56.6176 21.3369 58.2384 18.1906 58.5245 14.7187C58.8023 11.2548 57.7219 7.88613 55.4734 5.23236ZM46.1857 17.6188C46.0824 18.9139 45.4785 20.0896 44.4933 20.9239C44.3424 21.051 44.1596 21.1145 43.977 21.1145C43.8497 21.1145 43.7306 21.0828 43.6114 21.0272C40.8227 19.5892 38.916 17.3486 37.9546 14.3613C37.8592 14.0514 37.9546 13.7177 38.2009 13.5113C39.1861 12.6691 40.4413 12.2718 41.7364 12.3751C43.0315 12.4784 44.2072 13.0823 45.0494 14.0675C45.8838 15.0604 46.289 16.3158 46.1857 17.6188ZM50.619 13.5508C50.0152 14.0593 49.2763 14.3056 48.5455 14.3056C47.6396 14.3056 46.7341 13.9243 46.0983 13.1774C45.5422 12.5259 45.28 11.6997 45.3516 10.8494C45.423 9.99135 45.8203 9.2208 46.4718 8.66456C47.8224 7.52055 49.8404 7.68741 50.9846 9.02996C52.1286 10.3807 51.9618 12.4068 50.619 13.5508Z" fill="#FF00B3"/>
<path d="M53.1141 31.2128L37.6213 35.0025C37.3511 35.074 37.1365 35.2727 37.0491 35.5348C36.9618 35.7971 37.0253 36.083 37.2001 36.2896L40.1238 39.7456L32.5682 46.1572C32.2821 46.3955 32.2028 46.7928 32.3696 47.1265C32.5127 47.3967 32.7907 47.5555 33.0847 47.5555C33.1402 47.5555 33.2039 47.5476 33.2675 47.5316L48.7681 43.7419C49.0383 43.6784 49.2527 43.4796 49.3322 43.2175C49.4196 42.9554 49.3639 42.6693 49.1813 42.4549L46.2576 39.0067L53.8212 32.5951C54.0995 32.3568 54.1788 31.9596 54.0119 31.6258C53.8449 31.3002 53.4716 31.1254 53.1141 31.2128Z" fill="#BB0076"/>
<path d="M25.3865 41.0962C26.1493 40.4526 26.618 39.5469 26.6975 38.5459C26.7849 37.5449 26.4671 36.5755 25.8235 35.8128L23.44 33.0003C22.1054 31.4271 19.7298 31.2286 18.1488 32.5713L14.3296 35.8077L21.5678 44.3393L25.3865 41.0962Z" fill="#BB0076"/>
<path d="M43.8813 57.0976C43.2298 56.3349 42.3241 55.866 41.3229 55.7867C40.3218 55.6993 39.3525 56.0092 38.5898 56.6607L34.771 59.9036L42.0063 68.432L45.8277 65.1937C47.4087 63.851 47.5994 61.4833 46.2645 59.9023L43.8813 57.0976Z" fill="#BB0076"/>
<path d="M28.8021 64.9711C26.6729 66.7747 23.9636 67.6168 21.167 67.3307C18.3863 67.0527 15.8994 65.6861 14.1674 63.4853C10.8226 59.2269 11.5615 52.831 15.8041 49.232L20.3529 45.3641L13.1182 36.8367L8.66957 40.6117C4.22031 44.3854 1.42367 49.9073 0.994708 55.7707C0.954964 56.3189 0.931152 56.8592 0.931152 57.3995C0.931152 62.5717 2.74259 67.4578 6.12716 71.3032C10.3301 76.086 16.2649 78.5411 22.2238 78.5411C27.1258 78.5411 32.0519 76.8806 36.0403 73.496L40.7955 69.4594L33.5606 60.9318L28.8021 64.9711Z" fill="#BB0076"/>
</svg>
