<svg width="79" height="79" viewBox="0 0 79 79" fill="none" xmlns="http://www.w3.org/2000/svg">
<path fill-rule="evenodd" clip-rule="evenodd" d="M19.0246 15.1097C19.2565 15.0908 19.4884 15.0766 19.7298 15.0766H36.6433C36.8752 15.0766 37.1166 15.0908 37.3484 15.1097L38.6972 11.9911C39.3266 10.5383 38.948 8.89138 37.8075 7.85968C36.8894 7.03625 35.5833 6.92267 34.5469 7.58521L33.5531 8.22407C32.6492 8.80142 31.5561 8.80142 30.6428 8.22407L29.6348 7.58047C28.7309 7.00312 27.6377 7.00312 26.7244 7.58047L25.7211 8.22407C24.8125 8.80142 23.7241 8.80142 22.8108 8.22407L21.8217 7.58521C20.7853 6.92267 19.4839 7.03626 18.5659 7.85968C17.4253 8.88661 17.0468 10.5382 17.6762 11.9911L19.0246 15.1097ZM28.1818 78.5565C12.825 78.5565 0.374512 66.7919 0.374512 52.2684C0.374512 42.4629 6.14325 33.116 14.5719 26.8175C15.8544 28.2135 17.6905 29.0938 19.7302 29.0938H36.6438C38.674 29.0938 40.5148 28.2088 41.7973 26.8175C50.2209 33.1163 55.9996 42.4627 55.9996 52.2684C55.9996 66.7869 43.5386 78.5565 28.1818 78.5565ZM34.1777 52.959C33.9647 52.6419 33.7044 52.3296 33.3921 52.0314C32.2752 50.943 30.8413 50.6023 29.3222 50.2473C28.1344 49.9681 26.8803 49.6699 26.2225 48.998C26.0947 48.8655 26.0048 48.6999 25.9386 48.5153C25.8439 48.2408 25.8297 47.938 25.9007 47.6303C25.967 47.3464 26.0995 47.0814 26.3172 46.8684C26.4875 46.7028 26.7147 46.5561 27.0081 46.4614C27.1169 46.4236 27.221 46.3952 27.3204 46.3668C28.0823 46.1728 28.9484 46.2012 29.6771 46.4662C30.2545 46.6791 30.7324 47.0719 30.9264 47.654C30.9548 47.7155 30.9643 47.7723 30.9785 47.8196C31.2293 48.856 32.2798 49.4854 33.3163 49.2347C34.3527 48.9838 34.9821 47.9333 34.7313 46.8968C34.684 46.7265 34.6366 46.5656 34.5846 46.4141C33.9646 44.5922 32.6112 43.4422 31.0069 42.8412C30.723 42.7324 30.4249 42.6472 30.122 42.5809V41.0288C30.122 39.9593 29.2512 39.0979 28.1817 39.0979C27.1121 39.0979 26.2508 39.9639 26.2508 41.0288V42.6568C26.0852 42.7041 25.9243 42.7514 25.7728 42.8035C24.9068 43.0969 24.1969 43.5465 23.6291 44.1001C22.8388 44.8715 22.3419 45.8275 22.1242 46.8165C21.9112 47.7914 21.9728 48.823 22.2851 49.7601C22.5312 50.4699 22.924 51.1372 23.4682 51.691C24.9163 53.177 26.743 53.6028 28.4561 54.0099C29.4405 54.2417 30.368 54.4689 30.7135 54.8002C30.7987 54.8853 30.8791 54.98 30.9454 55.0841C31.1252 55.3586 31.182 55.6567 31.1441 55.9359C31.1063 56.253 30.9454 56.5606 30.6993 56.8114C30.6188 56.8966 30.5195 56.9771 30.4012 57.0575C30.2639 57.1427 30.1172 57.2231 29.9705 57.2847C29.2938 57.5686 28.4703 57.6348 27.6659 57.4172C26.8709 57.2042 26.0994 56.6931 25.5222 55.8176C25.3565 55.5574 25.2098 55.2782 25.0773 54.9753C24.6703 53.991 23.5441 53.5225 22.555 53.9342C21.5707 54.3459 21.1069 55.4769 21.5139 56.4565C21.741 57.0007 22.006 57.4929 22.29 57.9378C23.3406 59.5373 24.7603 60.5358 26.2604 61.0327V62.7648C26.2604 63.8343 27.1264 64.6957 28.1913 64.6957C29.2608 64.6957 30.1316 63.8297 30.1316 62.7648V61.2646C30.5906 61.1652 31.0355 61.0327 31.4519 60.8576C31.8352 60.6967 32.1948 60.5074 32.5214 60.2945C32.8574 60.0673 33.1792 59.8023 33.4726 59.5042C34.2913 58.6666 34.8213 57.5923 34.9728 56.4566C35.1195 55.2687 34.8875 54.0521 34.1777 52.959ZM19.7295 25.222H36.643C38.3704 25.222 39.7758 23.807 39.7758 22.0796C39.7758 20.3523 38.3703 18.9468 36.643 18.9468H19.7295C18.0021 18.9468 16.5871 20.3524 16.5871 22.0796C16.5871 23.8069 18.0021 25.222 19.7295 25.222Z" fill="#069FFF"/>
<path d="M59.9668 14.3122H54.5456C54.078 14.3122 53.6799 14.0466 53.4893 13.6136C53.3161 13.1749 53.4085 12.7072 53.7434 12.3724L65.1341 0.981602C65.5786 0.537057 66.3003 0.537057 66.7391 0.981602L78.1298 12.3724C78.4647 12.7072 78.5628 13.1748 78.3839 13.6136C78.2049 14.0466 77.795 14.3122 77.3273 14.3122H71.9177V35.2063C71.9177 35.9973 71.2595 36.6554 70.457 36.6554H61.4159C60.6134 36.6554 59.9668 35.9973 59.9668 35.2063V14.3122Z" fill="#086AC5"/>
</svg>
